<?xml version="1.0" standalone="no"?>
<!DOCTYPE svg PUBLIC "-//W3C//DTD SVG 1.1//EN" "http://www.w3.org/Graphics/SVG/1.1/DTD/svg11.dtd" >
<svg xmlns="http://www.w3.org/2000/svg" width="100%" height="100%">
<metadata>
Created by FontForge 20090622 at Wed Apr 17 03:08:42 2013
 By fontface
True type fonts.
</metadata>
<defs>
<font id="Avant-GardeT." horiz-adv-x="1024" >
  <font-face 
    font-family="Avant Garde T."
    font-weight="400"
    font-stretch="normal"
    units-per-em="2455"
    panose-1="0 0 0 0 0 0 0 0 0 0"
    ascent="1964"
    descent="-491"
    x-height="1100"
    cap-height="1456"
    bbox="-342 -483 2605 1972"
    underline-thickness="113"
    underline-position="-122"
    unicode-range="U+0020-U+F134"
  />
<missing-glyph horiz-adv-x="1972" 
d="M123 0v1972h1726v-1972h-1726zM1726 123v1726h-1480v-1726h1480z" />
    <glyph glyph-name=".notdef" horiz-adv-x="1972" 
d="M123 0v1972h1726v-1972h-1726zM1726 123v1726h-1480v-1726h1480z" />
    <glyph glyph-name=".null" horiz-adv-x="0" 
 />
    <glyph glyph-name="nonmarkingreturn" horiz-adv-x="578" 
 />
    <glyph glyph-name="space" unicode=" " horiz-adv-x="578" 
 />
    <glyph glyph-name="exclam" unicode="!" horiz-adv-x="588" 
d="M365 379h-142v1077h142v-1077zM365 0h-142v266h142v-266z" />
    <glyph glyph-name="quotedbl" unicode="&#x22;" horiz-adv-x="569" 
d="M473 1434v-553h-102v553h102zM199 1434v-553h-101v553h101z" />
    <glyph glyph-name="numbersign" unicode="#" horiz-adv-x="1575" 
d="M975 864h-266l-97 -276h267zM918 1454l-168 -483h264l172 483h127l-170 -483h315l-37 -107h-317l-98 -276h340l-37 -109h-340l-170 -479h-129l172 479h-269l-172 -479h-127l170 479h-327l39 109h325l101 276h-353l35 107h354l173 483h127z" />
    <glyph glyph-name="dollar" unicode="$" horiz-adv-x="1157" 
d="M152 432h139v-16q0 -138 72 -212.5t212 -74.5q128 0 207.5 72.5t79.5 195.5q0 195 -309 297l-30 10q-186 63 -260.5 144.5t-74.5 218.5q0 144 89.5 251t230.5 126v213h143v-213q147 -15 232 -112q41 -45 66.5 -112t25.5 -141h-144v4q0 108 -67 175q-31 31 -75.5 49
t-100.5 18q-121 0 -189.5 -68t-68.5 -182q0 -154 284 -257l91 -32q160 -60 231.5 -144.5t71.5 -221.5q0 -172 -96 -284.5t-261 -131.5v-246h-143v246q-159 17 -257.5 135t-98.5 293z" />
    <glyph glyph-name="percent" unicode="%" horiz-adv-x="1796" 
d="M219 1124q0 -90 66 -158.5t161 -68.5q88 0 157 66t69 161q0 89 -65.5 157.5t-160.5 68.5q-92 0 -159.5 -67t-67.5 -159zM90 1126q0 150 104.5 254.5t254.5 104.5q147 0 253.5 -105.5t106.5 -253.5q0 -147 -105.5 -252.5t-254.5 -105.5q-151 0 -255 104t-104 254z
M1229 1485h117l-779 -1514h-116zM1114 330q0 -89 66 -158.5t161 -69.5q90 0 159 66t69 162q0 93 -66.5 159t-161.5 66q-90 0 -158.5 -65.5t-68.5 -159.5zM987 330q0 149 104.5 253.5t254.5 104.5q143 0 250.5 -104.5t107.5 -253.5q0 -151 -104 -255t-254 -104
q-151 0 -255 104t-104 255z" />
    <glyph glyph-name="ampersand" unicode="&#x26;" horiz-adv-x="1421" 
d="M555 883q113 44 169 110.5t56 153.5q0 80 -56.5 141.5t-135.5 61.5q-87 0 -144 -57.5t-57 -153.5q0 -66 36 -121.5t132 -134.5zM889 371l-387 360q-109 -53 -165 -135.5t-56 -185.5q0 -126 78 -210.5t202 -84.5q97 0 175.5 62t152.5 194zM993 276q-66 -147 -181 -226
t-259 -79q-173 0 -298.5 129.5t-125.5 309.5q0 129 75 243t202 172q-97 86 -132.5 155t-35.5 161q0 135 102 242q52 50 118.5 75t135.5 25q132 0 234 -102.5t102 -239.5q0 -107 -70.5 -198t-208.5 -155l295 -272l172 453h156l-219 -555l325 -299l-90 -107z" />
    <glyph glyph-name="quotesingle" unicode="'" horiz-adv-x="295" 
d="M199 1434v-553h-101v553h101z" />
    <glyph glyph-name="parenleft" unicode="(" horiz-adv-x="541" 
d="M432 1485v-162q-87 -69 -126.5 -170t-39.5 -303v-657q0 -105 9 -180q1 -14 3.5 -31t8 -40t17.5 -54q38 -98 128 -169v-161q-153 81 -231 234q-38 75 -57 169l-7 38l-6 53l-5 58l-1 58v706q0 221 75 372t232 239z" />
    <glyph glyph-name="parenright" unicode=")" horiz-adv-x="541" 
d="M109 1485q155 -83 231 -235q38 -75 57 -169l7 -39l6 -61l5 -66l1 -41v-706q0 -225 -75.5 -376.5t-231.5 -233.5v161q88 69 126.5 169t38.5 305v657q0 205 -36.5 303.5t-128.5 169.5v162z" />
    <glyph glyph-name="asterisk" unicode="*" 
d="M510 981l-182 -264l-107 74l201 251l-297 86l37 119l291 -96v305h114v-305l289 96l41 -119l-301 -86l205 -251l-105 -74z" />
    <glyph glyph-name="plus" unicode="+" horiz-adv-x="1706" 
d="M903 1221v-562h549v-98h-549v-561h-98v561h-551v98h551v562h98z" />
    <glyph glyph-name="comma" unicode="," horiz-adv-x="578" 
d="M248 -162h-144l156 428h143z" />
    <glyph glyph-name="hyphen" unicode="-" horiz-adv-x="659" 
d="M563 616v-133h-469v133h469z" />
    <glyph glyph-name="period" unicode="." horiz-adv-x="578" 
d="M360 0h-143v266h143v-266z" />
    <glyph glyph-name="slash" unicode="/" horiz-adv-x="569" 
d="M72 -190h-121l498 1646h120z" />
    <glyph glyph-name="zero" unicode="0" horiz-adv-x="1157" 
d="M227 481q0 -180 93 -281.5t258 -101.5q158 0 256 99q45 48 69.5 119t24.5 161v502q0 177 -93.5 278t-256.5 101q-165 0 -258 -101.5t-93 -283.5v-492zM86 512v432q0 143 18 212t68 134q69 93 176 145q54 26 114 39t116 13q228 0 360.5 -142t132.5 -393v-446v-15v-13v-11
v-11q0 -39 -4 -58l-3 -38l-12 -50q-18 -77 -61 -136q-69 -96 -177 -150q-54 -26 -115.5 -39.5t-120.5 -13.5q-63 0 -120 12q-29 6 -55 15q-12 4 -25.5 9.5t-28.5 13.5q-94 46 -179 147q-42 54 -63 137t-21 207z" />
    <glyph glyph-name="one" unicode="1" horiz-adv-x="1157" 
d="M676 0h-152v1331h-254v125h406v-1456z" />
    <glyph glyph-name="two" unicode="2" horiz-adv-x="1157" 
d="M1036 0h-903v141l516 490q153 144 202.5 229t49.5 174q0 131 -89.5 226.5t-227.5 95.5q-141 0 -226.5 -94.5t-85.5 -251.5l1 -21l1 -20h-141v22q0 214 129 355t334 141q183 0 313.5 -133.5t130.5 -329.5q0 -113 -54.5 -216.5t-172.5 -213.5l-491 -453h714v-141z" />
    <glyph glyph-name="three" unicode="3" horiz-adv-x="1157" 
d="M254 442v-12q0 -144 89.5 -239t221.5 -95q142 0 235 95.5t93 240.5q0 167 -98 253.5t-287 86.5l-42 -1l-25 -1v121q21 0 24 -2h39q140 0 214.5 60t74.5 177q0 103 -62 168.5t-156 65.5q-107 0 -168 -65q-26 -26 -47 -77l-12 -48l-4 -55h-133q0 84 27 150.5t82 119.5
q100 100 262 100q147 0 252.5 -106t105.5 -253q0 -87 -33.5 -150.5t-107.5 -119.5q116 -60 177.5 -164.5t61.5 -245.5q0 -201 -132.5 -338t-332.5 -137q-208 0 -337 126q-60 60 -93.5 149t-33.5 196h145z" />
    <glyph glyph-name="four" unicode="4" horiz-adv-x="1157" 
d="M774 408l6 880l-542 -880h536zM911 0h-141v281h-682v127l660 1048h163v-1048h158v-127h-158v-281z" />
    <glyph glyph-name="five" unicode="5" horiz-adv-x="1157" 
d="M84 442h145q0 -70 28.5 -129t82.5 -112q102 -99 240 -99q147 0 248.5 110.5t101.5 272.5q0 158 -101.5 262.5t-265.5 104.5q-97 0 -168.5 -39.5t-132.5 -128.5l-110 51l129 721h657v-143h-535l-73 -406l36 24l25 14q33 17 63 27q62 21 134 21q212 0 348.5 -145
t136.5 -367q0 -212 -144.5 -361t-353.5 -149q-196 0 -334 131.5t-157 339.5z" />
    <glyph glyph-name="six" unicode="6" horiz-adv-x="1157" 
d="M586 825q-151 0 -252 -104t-101 -256q0 -154 104 -260.5t251 -106.5q138 0 237 102.5t99 262.5q0 153 -95.5 257.5t-242.5 104.5zM621 1456h178l-340 -526l86 16q39 6 71 6q198 0 327.5 -139t129.5 -346q0 -211 -142 -353.5t-356 -142.5q-210 0 -350.5 138t-140.5 342
q0 168 180 452l27 41z" />
    <glyph glyph-name="seven" unicode="7" horiz-adv-x="1157" 
d="M426 0h-160l576 1313h-637v143h803v-131z" />
    <glyph glyph-name="eight" unicode="8" horiz-adv-x="1157" 
d="M322 1122q0 -104 69.5 -173.5t177.5 -69.5q131 0 201 61.5t70 177.5q0 105 -73 171.5t-185 66.5t-186 -66.5t-74 -167.5zM258 418q0 -134 90 -228t221 -94q137 0 232.5 93t95.5 235q0 144 -87 234t-230 90q-147 0 -234.5 -87.5t-87.5 -242.5zM334 813q-67 47 -116 123
q-20 38 -30 79q-4 18 -7 41t-3 44q0 157 116 270q55 53 126.5 84t154.5 31q167 0 285.5 -111.5t118.5 -263.5q0 -99 -39.5 -171t-122.5 -126q111 -60 169 -154.5t58 -214.5q0 -206 -133 -339.5t-342 -133.5q-191 0 -323.5 134.5t-132.5 328.5q0 120 51 212.5t170 166.5z" />
    <glyph glyph-name="nine" unicode="9" horiz-adv-x="1157" 
d="M571 633q150 0 251.5 104t101.5 256q0 79 -24.5 141.5t-79.5 117.5q-103 106 -251 106q-138 0 -237 -103t-99 -260q0 -158 95.5 -260t242.5 -102zM537 0h-179l340 528l-86 -17l-71 -5q-194 0 -325.5 138.5t-131.5 346.5q0 215 140 355.5t356 140.5q212 0 352.5 -138.5
t140.5 -340.5q0 -168 -180 -452l-26 -41z" />
    <glyph glyph-name="colon" unicode=":" horiz-adv-x="588" 
d="M365 834h-142v266h142v-266zM365 0h-142v266h142v-266z" />
    <glyph glyph-name="semicolon" unicode=";" horiz-adv-x="588" 
d="M248 -162h-144l156 428h143zM365 1100v-266h-142v266h142z" />
    <glyph glyph-name="less" unicode="&#x3c;" horiz-adv-x="1706" 
d="M1442 1026l-1022 -416l1022 -413v-109l-1178 481v82l1178 484v-109z" />
    <glyph glyph-name="equal" unicode="=" horiz-adv-x="1706" 
d="M1452 473v-98h-1198v98h1198zM1452 846v-98h-1198v98h1198z" />
    <glyph glyph-name="greater" unicode="&#x3e;" horiz-adv-x="1706" 
d="M1442 651v-82l-1178 -481v109l1022 413l-1022 416v109z" />
    <glyph glyph-name="question" unicode="?" horiz-adv-x="948" 
d="M547 398l-144 -1q0 89 39 180.5t115 174.5l54 53q126 119 126 252q0 130 -69.5 204t-194.5 74q-129 0 -202 -83q-32 -38 -58 -103q-10 -32 -15 -64.5t-5 -72.5h-148q0 210 121.5 341.5t314.5 131.5q180 0 294 -120t114 -310q0 -181 -166 -335l-25 -22
q-78 -72 -114.5 -144.5t-36.5 -155.5zM403 0v266h144v-266h-144z" />
    <glyph glyph-name="at" unicode="@" horiz-adv-x="2048" 
d="M1298 836l60 125h94l-139 -562l-14 -63l-3 -29q0 -39 28 -68q29 -24 79 -24q47 0 103.5 21t107.5 61q95 75 150 204q23 56 39 131.5t16 151.5q0 249 -198.5 414.5t-508.5 165.5q-178 0 -320.5 -48t-261.5 -151q-147 -126 -222 -290.5t-75 -362.5q0 -171 60 -302.5
t184 -234.5q98 -78 244 -126t301 -48q83 0 169 12l82 15q21 3 40 10q14 3 21 5t22 8q169 48 301 143l39 -55q-145 -109 -311.5 -165.5t-342.5 -56.5q-193 0 -346 45.5t-276 139.5q-152 115 -227.5 272.5t-75.5 362.5q0 208 85 381.5t253 314.5q128 104 298 162.5t361 58.5
q169 0 312 -43t245 -125q125 -96 192.5 -227.5t67.5 -280.5q0 -174 -61 -311q-30 -69 -74.5 -125t-108 -105.5t-146.5 -80.5t-163 -31q-97 0 -144.5 37.5t-47.5 113.5l1 14l1 15q-48 -84 -126 -132t-169 -48q-149 0 -233 84q-39 42 -59.5 103.5t-20.5 140.5q0 228 135 387
t329 159q94 0 158 -41t96 -122zM1210 469l62 248q-18 93 -76 145.5t-139 52.5q-154 0 -254.5 -133.5t-100.5 -337.5q0 -107 54 -171t153 -64q56 0 99.5 15.5t89.5 55.5q77 67 112 189z" />
    <glyph glyph-name="A" unicode="A" horiz-adv-x="1223" 
d="M100 0h-151l565 1456h172l563 -1456h-153l-174 457h-648zM872 588l-276 731l-272 -731h548z" />
    <glyph glyph-name="B" unicode="B" horiz-adv-x="1042" 
d="M272 688v-549h201q177 0 261.5 66.5t84.5 206.5q0 139 -86 207.5t-260 68.5h-201zM272 1317v-490h86q210 0 295.5 58.5t85.5 191.5q0 120 -81.5 180t-262.5 60h-123zM135 1456h271q247 0 363 -93.5t116 -291.5q0 -100 -37 -169t-119 -118q117 -48 176.5 -137t59.5 -217
q0 -217 -123 -323.5t-385 -106.5h-322v1456z" />
    <glyph glyph-name="C" unicode="C" horiz-adv-x="1540" 
d="M1296 1079q-96 132 -218.5 198t-276.5 66q-240 0 -414 -180.5t-174 -427.5q0 -261 171 -443.5t417 -182.5q146 0 271 63t214 188h170q-99 -186 -268 -287.5t-377 -101.5q-316 0 -533 219t-217 547q0 151 56.5 287t171.5 250q102 102 232.5 156.5t281.5 54.5
q216 0 387.5 -103.5t277.5 -302.5h-172z" />
    <glyph glyph-name="D" unicode="D" horiz-adv-x="1366" 
d="M276 1317v-1180h297q273 0 425.5 156.5t152.5 441.5q0 141 -51.5 261.5t-145.5 205.5q-69 60 -157 87q-45 14 -108 21q-31 3 -68.5 5t-81.5 2h-263zM135 1456h414q107 0 156 -8l41 -4l25 -6q34 -6 65 -16q112 -33 206 -109q123 -102 193 -258t70 -324
q0 -193 -75.5 -352.5t-215.5 -257.5q-90 -63 -202 -93q-58 -14 -137 -21q-27 0 -90.5 -3.5t-99.5 -3.5h-350v1456z" />
    <glyph glyph-name="E" unicode="E" horiz-adv-x="1028" 
d="M279 803h612v-144h-612v-518h612v-141h-756v1456h756v-143h-612v-510z" />
    <glyph glyph-name="F" unicode="F" horiz-adv-x="991" 
d="M135 0v1456h719v-143h-578v-510h578v-144h-578v-659h-141z" />
    <glyph glyph-name="G" unicode="G" horiz-adv-x="1612" 
d="M643 698h905q0 -154 -58.5 -284t-170.5 -239q-210 -204 -518 -204q-315 0 -527.5 220t-212.5 546q0 151 56.5 287.5t167 244.5t244.5 164q67 26 143.5 39t146.5 13q210 0 378.5 -102t272.5 -293h-176q-102 129 -220.5 192.5t-262.5 63.5q-246 0 -423 -180
q-88 -91 -131.5 -198.5t-43.5 -232.5q0 -268 173 -447t427 -179q200 0 358.5 128t206.5 332h-735v129z" />
    <glyph glyph-name="H" unicode="H" horiz-adv-x="1251" 
d="M279 0h-144v1456h144v-653h692v653h143v-1456h-143v664h-692v-664z" />
    <glyph glyph-name="I" unicode="I" horiz-adv-x="412" 
d="M276 0h-143v1456h143v-1456z" />
    <glyph glyph-name="J" unicode="J" horiz-adv-x="915" 
d="M641 1456h143v-981l-3 -115l-3 -42q0 -13 -1.5 -19.5t-6.5 -23.5q-12 -66 -45 -125q-48 -81 -139 -131t-197 -50q-157 0 -262 105q-49 53 -74.5 124.5t-25.5 155.5h143q0 -57 17.5 -97.5t51.5 -77.5q63 -66 158 -66q126 0 188 84q24 37 40 124t16 214v921z" />
    <glyph glyph-name="K" unicode="K" horiz-adv-x="1100" 
d="M274 449v-449h-141v1456h141v-809l674 809h170l-588 -704l578 -752h-176l-494 645z" />
    <glyph glyph-name="L" unicode="L" horiz-adv-x="844" 
d="M791 0h-656v1456h144v-1315h512v-141z" />
    <glyph glyph-name="M" unicode="M" horiz-adv-x="1692" 
d="M143 0v1456h211l504 -1266l502 1266h211v-1456h-137v1286l-512 -1286h-129l-512 1286v-1286h-138z" />
    <glyph glyph-name="N" unicode="N" horiz-adv-x="1366" 
d="M1102 174l-17 1282h142v-1456h-172l-799 1284l16 -1284h-141v1456h172z" />
    <glyph glyph-name="O" unicode="O" horiz-adv-x="1612" 
d="M211 735q0 -266 173 -446t427 -180q246 0 418 182q86 92 129 203q21 56 32 116.5t11 128.5q0 248 -176 427.5t-424 179.5q-103 0 -196 -33.5t-171 -102.5q-101 -83 -162 -212.5t-61 -262.5zM61 737q0 152 58.5 290.5t169.5 246.5q103 101 233.5 156t280.5 55
q78 0 148.5 -12.5t134.5 -40.5q131 -53 237 -157t165.5 -243.5t59.5 -294.5q0 -78 -11 -145t-36 -136q-46 -128 -145 -239q-107 -116 -250.5 -181t-304.5 -65q-310 0 -525 221t-215 545z" />
    <glyph glyph-name="P" unicode="P" horiz-adv-x="1034" 
d="M262 1313v-555h211q171 0 257.5 66t86.5 208q0 146 -85 213.5t-271 67.5h-199zM119 1456h309l120 -3l46 -3q12 0 19 -1t28 -7q74 -12 133 -45q96 -57 147 -151q26 -49 39 -102.5t13 -105.5q0 -111 -45 -201.5t-131 -150.5q-57 -39 -141 -56.5t-203 -17.5h-191v-612h-143
v1456z" />
    <glyph glyph-name="Q" unicode="Q" horiz-adv-x="1612" 
d="M1313 174q34 -24 100 -44q28 -5 66.5 -9t66.5 -4h19v-127l-13 -1l-59 -3q-17 0 -33.5 1t-32.5 4l-45 9l-37 12q-75 27 -145 76q-45 -28 -89 -48t-97 -36t-106 -24.5t-105 -8.5q-309 0 -525.5 220.5t-216.5 545.5q0 152 58.5 290.5t169.5 246.5q103 101 233.5 156
t280.5 55q321 0 533 -218t212 -554q0 -161 -57 -292t-178 -247zM1202 264q95 95 147 218q26 63 39 125.5t13 131.5q0 248 -176 427.5t-424 179.5q-240 0 -415 -181t-175 -422l1 -44v-26l4 -18l4 -34l4 -17l12 -49q78 36 153 54t158 18q171 0 313.5 -76t341.5 -287zM1085 178
q-180 189 -296 250t-257 61q-29 0 -55 -3t-58 -11q-57 -14 -134 -49q81 -147 223.5 -233.5t302.5 -86.5h41q17 3 38.5 5t52.5 12q67 18 142 55z" />
    <glyph glyph-name="R" unicode="R" horiz-adv-x="1139" 
d="M256 1313v-1313h-141v1456h391q134 0 210.5 -18.5t139.5 -65.5q84 -57 136 -161q26 -51 39 -106.5t13 -111.5q0 -169 -101 -291q-48 -60 -113 -96.5t-138 -36.5l352 -569h-170l-432 702h138q133 0 222 81t89 208q0 38 -6.5 74t-19.5 65q-24 62 -79 111q-40 37 -105 54.5
t-214 17.5h-211z" />
    <glyph glyph-name="S" unicode="S" horiz-adv-x="952" 
d="M58 416h138q0 -65 18 -117t58 -98q72 -80 191 -80q126 0 201 79.5t75 215.5q0 192 -306 299l-36 12q-160 54 -230.5 139t-70.5 221q0 174 108 285t281 111q162 0 260 -101q45 -48 76 -121.5t31 -162.5h-135q0 57 -19 102.5t-53 80.5q-60 65 -160 65q-109 0 -177 -70.5
t-68 -179.5q0 -61 20 -97.5t66 -75.5q37 -29 176 -77l114 -39q142 -54 204.5 -138.5t62.5 -226.5q0 -214 -114.5 -342.5t-307.5 -128.5q-177 0 -289 122q-52 59 -83 141.5t-31 181.5z" />
    <glyph glyph-name="T" unicode="T" horiz-adv-x="750" 
d="M446 0h-143v1313h-291v143h725v-143h-291v-1313z" />
    <glyph glyph-name="U" unicode="U" horiz-adv-x="1157" 
d="M113 1456h143v-921q0 -124 8 -160l3 -22l7 -28l19 -44q38 -76 114.5 -126.5t170.5 -50.5q164 0 243.5 114.5t79.5 346.5v891h141v-926q0 -282 -112.5 -421.5t-341.5 -139.5q-245 0 -360 136t-115 425v926z" />
    <glyph glyph-name="V" unicode="V" horiz-adv-x="1139" 
d="M-41 1456h143l461 -1241l463 1241h143l-548 -1456h-113z" />
    <glyph glyph-name="W" unicode="W" horiz-adv-x="1665" 
d="M899 1456l293 -1194l364 1194h140l-451 -1456h-119l-292 1188l-293 -1188h-119l-453 1456h142l362 -1194l295 1194h131z" />
    <glyph glyph-name="X" unicode="X" horiz-adv-x="1165" 
d="M170 0h-176l506 733l-494 723h178l400 -604l399 604h176l-493 -723l505 -733h-180l-407 618z" />
    <glyph glyph-name="Y" unicode="Y" horiz-adv-x="981" 
d="M557 535v-535h-141v537l-465 919h164l372 -756l377 756h160z" />
    <glyph glyph-name="Z" unicode="Z" horiz-adv-x="938" 
d="M719 1313h-639v143h805v-137l-682 -1178h696v-141h-860v137z" />
    <glyph glyph-name="bracketleft" unicode="[" horiz-adv-x="541" 
d="M465 -293v-117h-332v1866h332v-119h-191v-1630h191z" />
    <glyph glyph-name="backslash" unicode="\" horiz-adv-x="569" 
d="M498 -190l-498 1646h119l499 -1646h-120z" />
    <glyph glyph-name="bracketright" unicode="]" horiz-adv-x="541" 
d="M76 -293h190v1630h-190v119h332v-1866h-332v117z" />
    <glyph glyph-name="asciicircum" unicode="^" horiz-adv-x="2048" 
d="M1094 1458l530 -557h-143l-457 455l-459 -455h-143l532 557h140z" />
    <glyph glyph-name="underscore" unicode="_" 
d="M1024 -383v-100h-1024v100h1024z" />
    <glyph glyph-name="grave" unicode="`" 
d="M545 1247l-269 350h152l209 -350h-92z" />
    <glyph glyph-name="a" unicode="a" horiz-adv-x="1290" 
d="M1042 557q0 174 -125 305t-288 131q-177 0 -301.5 -130.5t-124.5 -323.5q0 -180 123 -308.5t299 -128.5q168 0 292.5 133.5t124.5 321.5zM1042 174q-62 -91 -176.5 -147t-244.5 -56q-236 0 -400 165.5t-164 408.5t165 411t411 168q127 0 231.5 -51.5t177.5 -148.5v176
h138v-1100h-138v174z" />
    <glyph glyph-name="b" unicode="b" horiz-adv-x="1290" 
d="M248 1456v-459v-82q87 105 193 157q54 26 116.5 39t122.5 13q231 0 392 -167t161 -406q0 -247 -164 -413.5t-412 -166.5q-67 0 -118 10.5t-104 36.5q-99 48 -187 148v-166h-139v1456h139zM248 539q0 -176 124.5 -306.5t286.5 -130.5q177 0 301.5 131t124.5 324
q0 183 -123.5 309.5t-297.5 126.5q-171 0 -293.5 -133t-122.5 -321z" />
    <glyph glyph-name="c" unicode="c" horiz-adv-x="1241" 
d="M993 762q-63 120 -160.5 177.5t-220.5 57.5q-168 0 -287.5 -130t-119.5 -318q0 -190 119 -317.5t294 -127.5q127 0 222.5 62t152.5 178h156q-63 -173 -201 -275q-69 -50 -148.5 -75t-174.5 -25q-237 0 -402.5 169.5t-165.5 408.5q0 243 166.5 413t405.5 170
q176 0 312.5 -96t207.5 -272h-156z" />
    <glyph glyph-name="d" unicode="d" horiz-adv-x="1290" 
d="M1042 539q0 189 -123.5 321.5t-293.5 132.5q-174 0 -298 -127t-124 -309q0 -193 124.5 -324t301.5 -131q163 0 288 131t125 306zM1038 926v245v285h142v-1456h-142v166q-74 -92 -184 -143.5t-233 -51.5q-232 0 -398 168t-166 412q0 242 161 407.5t403 165.5q64 0 123 -12
q29 -6 56 -15t56 -23q103 -48 182 -148z" />
    <glyph glyph-name="e" unicode="e" horiz-adv-x="1241" 
d="M1192 506h-993l1 -46q0 -12 1.5 -19t6.5 -26q3 -17 9 -33t17 -39q30 -69 95 -128q117 -111 292 -111q122 0 219.5 62.5t156.5 181.5h160q-72 -180 -211.5 -279.5t-320.5 -99.5q-237 0 -404.5 171.5t-167.5 410.5q0 249 162 414t416 165q243 0 402 -171.5t159 -442.5v-10z
M1036 625q-39 180 -148 277q-52 45 -122 70t-156 25q-79 0 -147 -24.5t-124 -76.5q-111 -99 -136 -271h833z" />
    <glyph glyph-name="f" unicode="f" horiz-adv-x="563" 
d="M309 0h-137v977h-147v123h141v30q0 174 89.5 258.5t270.5 84.5h13v-127q-59 0 -105.5 -12t-72.5 -38q-54 -50 -54 -166v-30h232v-123h-230v-977z" />
    <glyph glyph-name="g" unicode="g" horiz-adv-x="1280" 
d="M301 -90q30 -92 115 -147.5t205 -55.5q188 0 301.5 125t113.5 334v29q-78 -108 -183 -165q-47 -25 -105 -40t-119 -15q-242 0 -409 165.5t-167 412.5q0 243 162 408t401 165q68 0 130 -12l57 -15q11 -4 26 -10t28 -13q94 -44 179 -156v180h138v-918q0 -289 -144.5 -450.5
t-398.5 -161.5q-187 0 -319 91t-175 249h164zM203 559q0 -188 123 -320.5t295 -132.5q159 0 286 131t127 306q0 186 -123.5 320t-289.5 134q-171 0 -294.5 -126.5t-123.5 -311.5z" />
    <glyph glyph-name="h" unicode="h" horiz-adv-x="1143" 
d="M111 1456h139v-485q57 72 144 111q45 20 91.5 30t102.5 10q228 0 336 -132.5t108 -430.5v-559h-139v561q0 237 -72.5 331.5t-240.5 94.5q-93 0 -167.5 -38.5t-115.5 -110.5q-20 -39 -37 -103l-7 -82l-3 -118v-535h-139v1456z" />
    <glyph glyph-name="i" unicode="i" horiz-adv-x="371" 
d="M256 1229h-141v227h141v-227zM115 0v1100h141v-1100h-141z" />
    <glyph glyph-name="j" unicode="j" horiz-adv-x="371" 
d="M256 1229h-141v227h141v-227zM256 1100v-1104q0 -198 -55 -274t-191 -76h-30v131q72 0 107 30q28 31 28 168v1125h141z" />
    <glyph glyph-name="k" unicode="k" horiz-adv-x="848" 
d="M256 0h-141v1456h141v-866l397 510h162l-399 -510l485 -590h-178l-467 573v-573z" />
    <glyph glyph-name="l" unicode="l" horiz-adv-x="371" 
d="M115 0v1456h141v-1456h-141z" />
    <glyph glyph-name="m" unicode="m" horiz-adv-x="1907" 
d="M977 928q66 95 166 144.5t223 49.5q219 0 323.5 -136t104.5 -431v-555h-135v584q0 213 -72.5 308t-234.5 95q-92 0 -162 -36t-117 -113q-24 -45 -36 -103l-8 -78l-3 -122v-535h-133v616q0 190 -77 280.5t-236 90.5q-93 0 -167.5 -38.5t-115.5 -110.5q-20 -39 -37 -103
l-7 -82l-3 -118v-535h-139v1100h139v-125q60 69 147.5 108t194.5 39q124 0 225.5 -51t159.5 -143z" />
    <glyph glyph-name="n" unicode="n" horiz-adv-x="1143" 
d="M113 1100h137v-125q65 75 150.5 111t195.5 36q116 0 212 -44t153 -130q38 -58 54.5 -141t16.5 -232v-575h-139v616q0 191 -74.5 281t-238.5 90q-93 0 -167.5 -38.5t-115.5 -110.5q-20 -39 -37 -103l-7 -82l-3 -118v-535h-137v1100z" />
    <glyph glyph-name="o" unicode="o" horiz-adv-x="1241" 
d="M201 551q0 -189 120 -318t302 -129q178 0 297.5 128.5t119.5 320.5q0 195 -120.5 320.5t-309.5 125.5q-164 0 -286.5 -130t-122.5 -318zM53 549q0 242 166 414t393 172q237 0 406.5 -168.5t169.5 -403.5q0 -246 -165 -420t-400 -174q-239 0 -404.5 170.5t-165.5 409.5z
" />
    <glyph glyph-name="p" unicode="p" horiz-adv-x="1290" 
d="M109 1100h139v-180q60 90 171 147t238 57q249 0 412.5 -166t163.5 -413q0 -237 -161.5 -405.5t-403.5 -168.5q-132 0 -240 51q-55 26 -99.5 63t-80.5 89v-76v-164v-290h-139v1456zM248 557q0 -188 124 -321.5t292 -133.5q167 0 294 126t127 311q0 192 -123.5 323
t-302.5 131q-158 0 -287 -132q-60 -66 -93 -141q-13 -31 -23 -78q-4 -21 -6 -40.5t-2 -44.5z" />
    <glyph glyph-name="q" unicode="q" horiz-adv-x="1290" 
d="M1038 1100h142v-1456h-142v522q-69 -93 -178.5 -144t-238.5 -51q-236 0 -400 165.5t-164 408.5t165 411t411 168q125 0 228.5 -51.5t176.5 -148.5v176zM1042 557q0 174 -125 305t-288 131q-177 0 -301.5 -130.5t-124.5 -323.5q0 -180 123 -308.5t299 -128.5
q168 0 292.5 133.5t124.5 321.5z" />
    <glyph glyph-name="r" unicode="r" horiz-adv-x="512" 
d="M254 0h-143v1100h133v-127q48 67 113 107l29 13l36 12l39 8l40 3l1 -153q-132 -12 -190 -79t-58 -220v-664z" />
    <glyph glyph-name="s" unicode="s" horiz-adv-x="797" 
d="M43 346h145v-4q0 -103 59 -170.5t146 -67.5q83 0 138 52t55 131q0 78 -42.5 127t-158.5 90q-178 63 -236.5 132.5t-58.5 182.5q0 129 93 219t227 90q141 0 224 -80q39 -37 64 -95q11 -26 18 -59.5t7 -68.5h-151q0 39 -13 68.5t-35 50.5t-53 33t-70 12q-69 0 -115 -46.5
t-46 -115.5q0 -44 17.5 -78t61.5 -64q38 -23 120 -48t102 -35q101 -42 150.5 -116.5t49.5 -186.5q0 -137 -100 -232.5t-250 -95.5q-155 0 -249 101q-44 49 -71.5 120.5t-27.5 153.5z" />
    <glyph glyph-name="t" unicode="t" horiz-adv-x="559" 
d="M209 0v958h-209v142h209v356h141v-356h209v-142h-209v-958h-141z" />
    <glyph glyph-name="u" unicode="u" horiz-adv-x="1143" 
d="M109 1100h139v-584q0 -222 72.5 -317t240.5 -95q96 0 166 37.5t117 112.5q20 38 33.5 103.5t13.5 201.5v541h141v-1100h-141v119q-60 -75 -141.5 -111.5t-192.5 -36.5q-237 0 -342.5 128.5t-105.5 426.5v574z" />
    <glyph glyph-name="v" unicode="v" horiz-adv-x="977" 
d="M543 0h-129l-430 1100h149l352 -887l355 887h153z" />
    <glyph glyph-name="w" unicode="w" horiz-adv-x="1421" 
d="M1016 276l266 824h150l-371 -1100h-92l-258 838l-254 -838h-92l-371 1100h147l269 -824l252 824h102z" />
    <glyph glyph-name="x" unicode="x" horiz-adv-x="848" 
d="M172 1100l256 -416l274 416h162l-356 -527l354 -573h-160l-282 459l-295 -459h-156l373 571l-328 529h158z" />
    <glyph glyph-name="y" unicode="y" horiz-adv-x="944" 
d="M-33 1100h162l340 -893l356 893h164l-594 -1456h-151l147 358z" />
    <glyph glyph-name="z" unicode="z" horiz-adv-x="825" 
d="M780 0h-760v133l574 834h-510v133h666v-152l-562 -807h592v-141z" />
    <glyph glyph-name="braceleft" unicode="{" 
d="M854 1370h-37q-131 0 -177 -49.5t-46 -204.5v-242q0 -168 -42 -238t-155 -106q110 -30 153.5 -103t43.5 -241v-241q0 -150 45 -202t170 -52l22 1l23 1v-107h-47q-197 0 -266.5 72.5t-69.5 296.5v244q0 150 -57.5 215t-194.5 65l-22 -1l-23 -1v109l23 -1l22 -1
q138 0 195 63t57 217v242q0 219 69 295t267 76h47v-107z" />
    <glyph glyph-name="bar" unicode="|" 
d="M567 1565v-2048h-108v2048h108z" />
    <glyph glyph-name="braceright" unicode="}" 
d="M555 1106v-242q0 -149 57 -214.5t195 -65.5l22 1l23 1v-109l-23 1l-22 1q-138 0 -195 -63t-57 -217v-244q0 -222 -69.5 -295.5t-266.5 -73.5h-47v107h39q129 0 175 49t46 203v241q0 167 42 240t155 104q-111 30 -154 104.5t-43 239.5v242q0 151 -45.5 203.5t-169.5 52.5
l-22 -1l-23 -1v107h47q192 0 264 -74.5t72 -296.5z" />
    <glyph glyph-name="asciitilde" unicode="~" horiz-adv-x="1706" 
d="M1530 637q-103 -73 -200 -108t-187 -35q-93 0 -260 57l-29 10l-16 6q-93 32 -160 48t-113 16q-42 0 -87 -9q-25 -5 -44.5 -11t-46.5 -18q-92 -38 -209 -122v113q105 71 205 108t182 37q104 0 272 -61l18 -7l31 -11q167 -60 257 -60q41 0 84.5 9t90 27.5t101.5 49.5l54 33
l29 19q10 7 28 22v-113z" />
    <glyph glyph-name="product" unicode="&#x220f;" horiz-adv-x="1509" 
d="M160 1473h1188v-1866h-168v1718h-852v-1718h-168v1866z" />
    <glyph glyph-name="c294" unicode="&#x2211;" horiz-adv-x="1317" 
d="M49 1473h1223v-144h-1014l705 -766l-740 -813h1057v-143h-1266v133l744 821l-709 772v140z" />
    <glyph glyph-name="quotesinglbase" unicode="&#x201a;" horiz-adv-x="397" 
d="M166 -162h-141l153 428h144z" />
    <glyph glyph-name="florin" unicode="&#x192;" horiz-adv-x="1157" 
d="M582 -47q-20 -209 -108.5 -291t-287.5 -82h-30l10 133h41q118 0 167 41t66 164l74 834h-256l10 133h256l21 225q0 57 7 100q6 51 22 87q24 69 71 110q81 72 279 72h49l-10 -129l-29 1l-19 1q-118 0 -164 -38t-65 -192l-22 -237h258l-13 -133h-256z" />
    <glyph glyph-name="quotedblbase" unicode="&#x201e;" horiz-adv-x="692" 
d="M461 -162h-144l156 428h141zM166 -162h-141l153 428h144z" />
    <glyph glyph-name="ellipsis" unicode="&#x2026;" horiz-adv-x="2048" 
d="M413 0h-143v266h143v-266zM1095 0h-143v266h143v-266zM1779 0h-143v266h143v-266z" />
    <glyph glyph-name="dagger" unicode="&#x2020;" 
d="M438 -231v1142h-364v127h364v418h146v-418h366v-127h-366v-1142h-146z" />
    <glyph glyph-name="daggerdbl" unicode="&#x2021;" 
d="M434 -231v417h-364v127h364v598h-364v127h364v418h146v-418h374v-127h-374v-598h374v-127h-374v-417h-146z" />
    <glyph glyph-name="circumflex" unicode="&#x2c6;" 
d="M236 1247l200 350h152l200 -350h-92l-184 264l-184 -264h-92z" />
    <glyph glyph-name="perthousand" unicode="&#x2030;" horiz-adv-x="2693" 
d="M219 1122q0 -95 65.5 -161t159.5 -66q90 0 159 66t69 161q0 93 -66.5 160.5t-161.5 67.5q-93 0 -159 -66.5t-66 -161.5zM90 1126q0 145 105 252t256 107q144 0 251 -105.5t107 -253.5q0 -150 -104 -254t-254 -104q-151 0 -256 104t-105 254zM2015 328q0 -89 66 -157.5
t162 -68.5q90 0 158.5 66t68.5 160q0 93 -67 160t-160 67q-95 0 -161.5 -66.5t-66.5 -160.5zM1888 330q0 149 104.5 253.5t254.5 104.5q143 0 250.5 -104.5t107.5 -253.5q0 -151 -104 -255t-254 -104q-151 0 -255 104t-104 255zM1231 1485h115l-777 -1514h-116zM1116 330
q0 -96 66 -162t161 -66q90 0 159 66t69 162q0 93 -66 159t-162 66q-90 0 -158.5 -65.5t-68.5 -159.5zM987 330q0 149 104.5 253.5t254.5 104.5q143 0 250.5 -104.5t107.5 -253.5q0 -151 -104 -255t-254 -104q-151 0 -255 104t-104 255z" />
    <glyph glyph-name="Scaron" unicode="&#x160;" horiz-adv-x="952" 
d="M58 416h138q0 -65 18 -117t58 -98q72 -80 191 -80q126 0 201 79.5t75 215.5q0 192 -306 299l-36 12q-160 54 -230.5 139t-70.5 221q0 174 108 285t281 111q162 0 260 -101q45 -48 76 -121.5t31 -162.5h-135q0 57 -19 102.5t-53 80.5q-60 65 -160 65q-109 0 -177 -70.5
t-68 -179.5q0 -61 20 -97.5t66 -75.5q37 -29 176 -77l114 -39q142 -54 204.5 -138.5t62.5 -226.5q0 -214 -114.5 -342.5t-307.5 -128.5q-177 0 -289 122q-52 59 -83 141.5t-31 181.5zM201 1947h92l184 -262l184 262h92l-200 -348h-152z" />
    <glyph glyph-name="guilsinglleft" unicode="&#x2039;" horiz-adv-x="631" 
d="M360 229l-245 320l245 321h138l-248 -321l248 -320h-138z" />
    <glyph glyph-name="OE" unicode="&#x152;" horiz-adv-x="2232" 
d="M1393 260q-120 -144 -267.5 -216.5t-324.5 -72.5q-310 0 -525 221t-215 545q0 152 58.5 290.5t169.5 246.5q103 101 233.5 156t280.5 55q90 0 176 -18t158 -56q150 -72 256 -217v262h755v-143h-612v-510h612v-144h-612v-518h612v-141h-755v260zM211 735q0 -266 173 -446
t427 -180q246 0 418 182q86 92 129 203q21 56 32 116.5t11 128.5q0 248 -176 427.5t-424 179.5q-103 0 -196 -33.5t-171 -102.5q-101 -83 -162 -212.5t-61 -262.5z" />
    <glyph glyph-name="radical" unicode="&#x221a;" horiz-adv-x="1276" 
d="M1276 1636v-71h-125l-594 -1606h-41l-328 899l-114 -39l-19 58l246 86l272 -746l525 1419h178z" />
    <glyph glyph-name="infinity" unicode="&#x221e;" horiz-adv-x="1706" 
d="M897 559q52 -100 122 -149.5t159 -49.5q100 0 170.5 75.5t70.5 191.5q0 107 -62.5 184.5t-156.5 77.5q-84 0 -153 -72t-150 -258zM811 668q-51 99 -120.5 147.5t-160.5 48.5q-101 0 -173 -76q-33 -37 -50.5 -83.5t-17.5 -104.5q0 -107 63 -184.5t156 -77.5q87 0 156 75
t147 255zM838 721q72 144 149 206t182 62q120 0 213 -108.5t93 -264.5q0 -169 -81.5 -273.5t-211.5 -104.5q-94 0 -166 59.5t-148 204.5q-69 -137 -147.5 -200.5t-173.5 -63.5q-131 0 -222.5 108.5t-91.5 265.5q0 164 81.5 270.5t211.5 106.5q97 0 171.5 -63.5t140.5 -204.5
z" />
    <glyph glyph-name="integral" unicode="&#x222b;" horiz-adv-x="985" 
d="M293 -272q117 0 117 713l4 196q0 20 1 60t1 60l4 100l3 72q3 27 5 43.5t12 75.5q24 171 72 287q87 213 268 213q70 0 114 -36.5t44 -96.5q0 -48 -28.5 -76t-78.5 -28q-73 0 -98.5 68t-38.5 71q-116 0 -116 -623l-2 -81l-2 -78l-3 -130q0 -237 -27 -416q-13 -91 -31 -161
t-43 -126q-86 -206 -267 -206q-69 0 -113.5 36t-44.5 91q0 51 30 81t83 30q36 0 60.5 -15t41.5 -53l7 -33q0 -38 26 -38z" />
    <glyph glyph-name="approxequal" unicode="&#x2248;" horiz-adv-x="1706" 
d="M1530 469q-103 -69 -203.5 -107t-183.5 -38q-95 0 -292.5 69.5t-285.5 69.5q-80 0 -167.5 -36t-219.5 -124v111q102 71 201.5 108t185.5 37q105 0 297 -69q97 -33 167 -50.5t114 -17.5q91 0 175.5 34.5t211.5 123.5v-111zM1530 807q-99 -70 -198.5 -107.5t-188.5 -37.5
q-96 0 -293.5 69.5t-284.5 69.5q-80 0 -167.5 -36t-219.5 -124v113q102 71 202.5 108t184.5 37h21l37 -4q13 0 28 -4q15 -1 41 -9q36 -6 78 -21q17 -4 30 -8t17 -6l46 -18q189 -69 280 -69q85 0 171 34q44 16 97 46t119 78v-111z" />
    <glyph glyph-name="quoteleft" unicode="&#x2018;" horiz-adv-x="397" 
d="M375 1028h-144l-153 428h141z" />
    <glyph glyph-name="quoteright" unicode="&#x2019;" horiz-adv-x="397" 
d="M166 1028h-141l153 428h144z" />
    <glyph glyph-name="quotedblleft" unicode="&#x201c;" horiz-adv-x="692" 
d="M526 1028l-155 428h143l154 -428h-142zM231 1028l-153 428h141l156 -428h-144z" />
    <glyph glyph-name="quotedblright" unicode="&#x201d;" horiz-adv-x="692" 
d="M461 1028h-144l156 428h141zM166 1028h-141l153 428h144z" />
    <glyph glyph-name="bullet" unicode="&#x2022;" horiz-adv-x="1208" 
d="M307 762q0 118 87.5 206.5t209.5 88.5q116 0 205.5 -86.5t89.5 -208.5t-87.5 -209.5t-209.5 -87.5q-118 0 -206.5 87.5t-88.5 209.5z" />
    <glyph glyph-name="endash" unicode="&#x2013;" 
d="M1024 604v-112h-1024v112h1024z" />
    <glyph glyph-name="emdash" unicode="&#x2014;" horiz-adv-x="2048" 
d="M0 492v112h2048v-112h-2048z" />
    <glyph glyph-name="tilde" unicode="&#x2dc;" 
d="M801 1499q-24 -88 -74 -136t-117 -48h-13l-17 2l-35 8l-97 31l-28 6l-25 2q-26 0 -53 -18q-22 -19 -39 -56h-80q21 90 71.5 137.5t123.5 47.5l29 -3l24 -6l96 -30l28 -8l28 -3q33 0 53.5 15.5t42.5 58.5h82z" />
    <glyph glyph-name="trademark" unicode="&#x2122;" horiz-adv-x="1706" 
d="M938 1454l166 -422l156 422h116v-530h-71v467l-177 -467h-49l-186 467v-467h-72v530h117zM694 1454v-57h-172v-473h-82v473h-176v57h430z" />
    <glyph glyph-name="scaron" unicode="&#x161;" horiz-adv-x="412" 
d="M276 0h-143v1456h143v-1456zM131 1669v176h152v-176h-152z" />
    <glyph glyph-name="guilsinglright" unicode="&#x203a;" horiz-adv-x="371" 
d="M115 0v1100h141v-1100h-141z" />
    <glyph glyph-name="oe" unicode="&#x153;" horiz-adv-x="952" 
d="M477 -111h20q107 0 163.5 -44t56.5 -128q0 -81 -61 -128.5t-167 -47.5q-53 0 -109.5 9t-142.5 30v78q92 -20 145 -27l49 -6l44 -2q64 0 96 23q33 21 33 67q0 54 -34.5 79.5t-108.5 25.5h-29q-16 0 -18 -2l1 157q-145 13 -243 120q-52 59 -83 141.5t-31 181.5h138
q0 -65 18 -117t58 -98q72 -80 191 -80q126 0 201 79.5t75 215.5q0 192 -306 299l-36 12q-160 54 -230.5 139t-70.5 221q0 174 108 285t281 111q162 0 260 -101q45 -48 76 -121.5t31 -162.5h-135q0 57 -19 102.5t-53 80.5q-60 65 -160 65q-109 0 -177 -70.5t-68 -179.5
q0 -61 20 -97.5t66 -75.5q37 -29 176 -77l114 -39q142 -54 204.5 -138.5t62.5 -226.5q0 -214 -115 -342q-56 -62 -128.5 -95.5t-161.5 -33.5z" />
    <glyph glyph-name="c157" horiz-adv-x="797" 
d="M399 -111h20q107 0 163.5 -44t56.5 -128q0 -81 -61 -128.5t-167 -47.5q-53 0 -109.5 9t-142.5 30v78q92 -20 145 -27l49 -6l44 -2q64 0 96 23q33 21 33 67q0 54 -34.5 79.5t-108.5 25.5h-29q-16 0 -18 -2v159q-118 15 -194 97q-44 49 -71.5 120.5t-27.5 153.5h145v-4
q0 -103 59 -170.5t146 -67.5q83 0 138 52t55 131q0 78 -42.5 127t-158.5 90q-178 63 -236.5 132.5t-58.5 182.5q0 129 93 219t227 90q141 0 224 -80q39 -37 64 -95q11 -26 18 -59.5t7 -68.5h-151q0 39 -13 68.5t-35 50.5t-53 33t-70 12q-69 0 -115 -46.5t-46 -115.5
q0 -44 17.5 -78t61.5 -64q38 -23 120 -48t102 -35q101 -42 150.5 -116.5t49.5 -186.5q0 -137 -100 -233q-48 -46 -109 -70.5t-133 -24.5v-82z" />
    <glyph glyph-name="c158" horiz-adv-x="1612" 
d="M643 698h905q0 -154 -58.5 -284t-170.5 -239q-210 -204 -518 -204q-315 0 -527.5 220t-212.5 546q0 151 56.5 287.5t167 244.5t244.5 164q67 26 143.5 39t146.5 13q210 0 378.5 -102t272.5 -293h-176q-102 129 -220.5 192.5t-262.5 63.5q-246 0 -423 -180
q-88 -91 -131.5 -198.5t-43.5 -232.5q0 -268 173 -447t427 -179q200 0 358.5 128t206.5 332h-735v129zM533 1904h79q0 -36 12 -61.5t41 -48.5q47 -35 142 -35q96 0 138.5 32.5t54.5 112.5h81q0 -67 -19.5 -115t-55.5 -84q-65 -63 -199 -63q-127 0 -199 63q-33 33 -55 83
q-20 52 -20 116z" />
    <glyph glyph-name="Ydieresis" unicode="&#x178;" horiz-adv-x="1280" 
d="M301 -90q30 -92 115 -147.5t205 -55.5q188 0 301.5 125t113.5 334v29q-78 -108 -183 -165q-47 -25 -105 -40t-119 -15q-242 0 -409 165.5t-167 412.5q0 243 162 408t401 165q68 0 130 -12l57 -15q11 -4 26 -10t28 -13q94 -44 179 -156v180h138v-918q0 -289 -144.5 -450.5
t-398.5 -161.5q-187 0 -319 91t-175 249h164zM203 559q0 -188 123 -320.5t295 -132.5q159 0 286 131t127 306q0 186 -123.5 320t-289.5 134q-171 0 -294.5 -126.5t-123.5 -311.5zM367 1554h79q0 -36 12 -61.5t41 -48.5q47 -35 142 -35q96 0 138.5 32.5t54.5 112.5h81
q0 -67 -19.5 -115t-55.5 -84q-65 -63 -199 -63q-127 0 -199 63q-33 33 -55 83q-20 52 -20 116z" />
    <glyph glyph-name="nonbreakingspace" unicode="&#xa0;" horiz-adv-x="1157" 
 />
    <glyph glyph-name="exclamdown" unicode="&#xa1;" horiz-adv-x="588" 
d="M223 1456h142v-266h-142v266zM223 1075h142v-1075h-142v1075z" />
    <glyph glyph-name="cent" unicode="&#xa2;" horiz-adv-x="1157" 
d="M973 909q-42 134 -134 202.5t-231 68.5q-159 0 -276 -133t-117 -324q0 -192 115.5 -322.5t287.5 -130.5q130 0 223 74t132 205h147q-57 -178 -169.5 -278.5t-280.5 -123.5v-229h-133v232q-198 27 -332.5 192.5t-134.5 380.5q0 111 31 204t97 175q129 158 339 196v211h133
v-206q172 -18 285.5 -117.5t164.5 -276.5h-147z" />
    <glyph glyph-name="sterling" unicode="&#xa3;" horiz-adv-x="1157" 
d="M860 811v-141h-385q41 -72 60 -145l15 -72q4 -36 4.5 -48t0.5 -26q0 -77 -15.5 -133.5t-55.5 -118.5l58 -5l56 -1q183 0 276 69t93 213v26l-5 36q0 13 -4 28l-8 37h142l11 -71l3 -47q0 -94 -30.5 -172t-88.5 -132.5t-140.5 -81t-211.5 -26.5h-514v127h223q41 50 60 110
q10 31 15 61t5 67l-1 40q0 22 -5 45q-2 17 -5 30t-12 34q-21 66 -82 158h-251v139h145l-17 57l-15 63q-9 51 -9 95q0 191 132 324t333 133q167 0 282 -98.5t154 -280.5h-131q-24 117 -107 185q-37 30 -88 48.5t-108 18.5q-145 0 -236.5 -91.5t-91.5 -234.5l3 -49l10 -53
q2 -10 7 -27t11.5 -35t10.5 -27t14 -28h493z" />
    <glyph glyph-name="currency" unicode="&#xa4;" horiz-adv-x="1241" 
d="M944 887q0 132 -93.5 226.5t-227.5 94.5q-132 0 -229 -94t-97 -227q0 -129 96 -227.5t230 -98.5q129 0 225 96t96 230zM360 1210q48 34 124 68l68 16q35 6 69 6q82 0 138 -23q66 -21 124 -67l204 205l66 -65l-205 -205q44 -59 66 -125l16 -67q6 -33 6 -68q0 -69 -21 -132
t-67 -126l205 -207l-66 -66l-204 205q-54 -40 -125.5 -65t-136.5 -25q-73 0 -135 22q-33 11 -63 27l-31 17l-32 24l-204 -205l-66 66l205 207q-39 50 -68 125l-16 65q-6 33 -6 68q0 70 22 135q11 32 27 63q9 16 18.5 30.5t22.5 31.5l-205 205l66 65z" />
    <glyph glyph-name="yen" unicode="&#xa5;" horiz-adv-x="1157" 
d="M852 946h184v-110h-243l-88 -168h331v-111h-389v-557h-141v557h-391v111h334l-87 168h-247v110h188l-258 500h162l375 -748l368 748h162z" />
    <glyph glyph-name="brokenbar" unicode="&#xa6;" 
d="M567 408v-758h-108v758h108zM567 1432v-758h-108v758h108z" />
    <glyph glyph-name="section" unicode="&#xa7;" 
d="M391 526l248 -157q67 46 96 89q12 18 23 47l6 25l2 29q0 60 -33.5 108t-122.5 105l-221 137q-70 -27 -105.5 -74t-35.5 -106q0 -50 36 -104.5t107 -98.5zM170 127h137v-12q0 -95 51 -153t144 -58q85 0 133.5 44t48.5 122q0 62 -33.5 108.5t-128.5 104.5l-215 133
q-98 60 -148 131t-50 147q0 99 48 171t150 126q-52 40 -78 90.5t-26 116.5q0 120 87.5 203.5t225.5 83.5q140 0 226.5 -83.5t86.5 -230.5v-24h-128q0 102 -51.5 160.5t-145.5 58.5q-72 0 -117 -45.5t-45 -118.5q0 -57 34.5 -106t106.5 -90l203 -121q124 -72 174.5 -144.5
t50.5 -169.5q0 -86 -48 -157q-24 -34 -60.5 -65t-85.5 -58q52 -46 79 -104.5t27 -123.5q0 -123 -92 -202.5t-233 -79.5q-150 0 -240 84.5t-90 230.5l1 15z" />
    <glyph glyph-name="dieresis" unicode="&#xa8;" 
d="M625 1313v164h143v-164h-143zM256 1313v164h141v-164h-141z" />
    <glyph glyph-name="copyright" unicode="&#xa9;" horiz-adv-x="1706" 
d="M1073 915q-18 78 -75.5 123t-141.5 45q-122 0 -190 -95t-68 -267q0 -160 69 -257t189 -97q89 0 151 50.5t78 137.5h115q0 -59 -27.5 -111t-80.5 -94q-98 -80 -242 -80q-177 0 -279 122t-102 335q0 203 107.5 326t283.5 123q67 0 122 -17t101 -54q89 -68 107 -190h-117z
M1505 723q0 133 -48.5 250.5t-138.5 208t-212 142.5q-61 26 -123 39t-131 13q-131 0 -250 -48.5t-207 -139.5q-93 -96 -143.5 -217t-50.5 -248q0 -129 49.5 -247.5t141 -210.5t212.5 -142.5t248 -50.5q131 0 250 49.5t217 144.5q91 89 138.5 206t47.5 251zM852 1456
q151 0 282.5 -54.5t239.5 -160.5q101 -101 156 -237.5t55 -280.5q0 -75 -13 -145.5t-39.5 -136t-64.5 -122.5t-94 -111q-106 -104 -242 -162q-69 -27 -141 -41.5t-139 -14.5q-142 0 -276.5 54.5t-236.5 158t-160 240.5t-58 280l3 71q1 17 2.5 28.5t7.5 43.5q12 66 43 137
q57 131 163 242q99 102 232 156q67 27 136.5 41t143.5 14z" />
    <glyph glyph-name="ordfeminine" unicode="&#xaa;" horiz-adv-x="969" 
d="M782 1075q0 120 -94 213.5t-217 93.5q-133 0 -226 -92t-93 -227q0 -122 93 -217q47 -42 103 -66l57 -16q30 -6 64 -6q126 0 219.5 93.5t93.5 223.5zM782 809q-48 -67 -133.5 -105t-183.5 -38q-181 0 -301.5 116t-120.5 285q0 167 123.5 286.5t308.5 119.5q90 0 172 -36
t135 -104v123h103v-770h-103v123z" />
    <glyph glyph-name="guillemotleft" unicode="&#xab;" horiz-adv-x="934" 
d="M664 229l-246 320l246 321h137l-246 -321l246 -320h-137zM360 229l-245 320l245 321h138l-248 -321l248 -320h-138z" />
    <glyph glyph-name="logicalnot" unicode="&#xac;" horiz-adv-x="1706" 
d="M1452 858v-502h-96v402h-1102v100h1198z" />
    <glyph glyph-name="minus" unicode="&#xad;" horiz-adv-x="659" 
d="M563 616v-133h-469v133h469z" />
    <glyph glyph-name="registered" unicode="&#xae;" horiz-adv-x="1706" 
d="M850 1071h-158v-303h158q129 0 185.5 33t56.5 114t-58 118.5t-184 37.5zM874 1157q172 0 260.5 -57.5t88.5 -175.5q0 -83 -53 -144.5t-146 -77.5l188 -389h-145l-178 371h-197v-371h-127v844h309zM1505 721q0 132 -48 252t-139.5 212t-212.5 141.5t-253 49.5
q-125 0 -244 -48t-211.5 -141.5t-144 -214t-51.5 -249.5t49.5 -247.5t141 -210.5t212.5 -142.5t248 -50.5q131 0 250 49.5t217 144.5q90 89 138 204.5t48 250.5zM852 1456q152 0 284 -54t238 -160q101 -102 156 -237.5t55 -281.5q0 -75 -13 -145.5t-39.5 -136t-64.5 -122.5
t-94 -111q-106 -104 -242 -162q-69 -27 -141 -41.5t-139 -14.5q-146 0 -278 54q-65 27 -123 66t-112 92q-102 104 -160 241t-58 280l3 71q1 17 2.5 28.5t7.5 43.5q12 66 43 137q57 131 163 242q99 102 232 156q67 27 136.5 41t143.5 14z" />
    <glyph glyph-name="macron" unicode="&#xaf;" 
d="M256 1346v116h512v-116h-512z" />
    <glyph glyph-name="degree" unicode="&#xb0;" horiz-adv-x="674" 
d="M545 1174q0 86 -61 147q-27 29 -67 45q-21 8 -39 12t-40 4q-86 0 -147.5 -61t-61.5 -147q0 -87 60 -147t149 -60q87 0 147 60t60 147zM338 1452q114 0 195 -81.5t81 -196.5q0 -114 -82 -196.5t-196 -82.5q-112 0 -194.5 81.5t-82.5 197.5q0 111 81 194.5t198 83.5z" />
    <glyph glyph-name="plusminus" unicode="&#xb1;" horiz-adv-x="1706" 
d="M1452 150v-99h-1198v99h1198zM903 1169v-348h549v-98h-549v-348h-98v348h-551v98h551v348h98z" />
    <glyph glyph-name="twosuperior" unicode="&#xb2;" horiz-adv-x="764" 
d="M684 582h-596v84l340 295q94 79 130 134t36 107q0 79 -60.5 136t-148.5 57t-146.5 -56.5t-58.5 -150.5v-25h-92v13q0 129 86.5 214t218.5 85q117 0 205 -80.5t88 -198.5q0 -64 -36 -129q-17 -29 -46.5 -63.5t-66.5 -65.5l-324 -272h471v-84z" />
    <glyph glyph-name="threesuperior" unicode="&#xb3;" horiz-adv-x="764" 
d="M168 848v-8q0 -87 59 -144t146 -57q88 0 152.5 57.5t64.5 145.5q0 96 -66 150q-33 26 -80.5 39t-107.5 13h-45v72q13 0 16 -2h25q88 0 139 36t51 107q0 60 -40.5 100t-102.5 40q-69 0 -110.5 -39t-41.5 -109h-88q0 48 18 90t53 74q66 60 173 60q100 0 168 -64
q32 -28 51 -69t19 -83q0 -48 -21 -89q-22 -37 -74 -72q80 -39 120 -101q20 -32 30 -68q4 -16 7 -37t3 -40q0 -117 -87.5 -201t-219.5 -84q-136 0 -221.5 75.5t-85.5 207.5h96z" />
    <glyph glyph-name="acute" unicode="&#xb4;" 
d="M479 1247h-92l209 350h152z" />
    <glyph glyph-name="mu" unicode="&#xb5;" horiz-adv-x="1110" 
d="M344 1065l-125 -592l-12 -73l-4 -66q0 -114 57.5 -179t167.5 -65q124 0 213.5 107t134.5 311l121 557h139l-164 -770l-17 -85l-5 -48q0 -33 17 -50q19 -16 51 -16h16l20 2l-20 -110l-41 -8l-45 -3q-63 0 -104 36q-33 36 -33 110v14q-39 -71 -119.5 -116.5t-179.5 -45.5
q-86 0 -156.5 39t-112.5 117l-114 -557h-140l316 1491h139z" />
    <glyph glyph-name="paragraph" unicode="&#xb6;" 
d="M940 1409h-127v-1409h-82v1409h-186v-1409h-84v782q-91 0 -157 26.5t-119 75.5q-101 95 -101 246q0 154 108.5 251.5t284.5 97.5h463v-70z" />
    <glyph glyph-name="periodcentered" unicode="&#x2219;" horiz-adv-x="578" 
d="M197 729q0 39 27.5 66.5t64.5 27.5q38 0 66 -28t28 -66q0 -36 -28 -64t-66 -28q-39 0 -65.5 27.5t-26.5 64.5z" />
    <glyph glyph-name="cedilla" unicode="&#xb8;" 
d="M512 -111h20q107 0 163.5 -44t56.5 -128q0 -81 -61 -128.5t-167 -47.5q-53 0 -109.5 9t-142.5 30v78q92 -20 145 -27l49 -6l44 -2q64 0 96 23q33 21 33 67q0 54 -34.5 79.5t-108.5 25.5h-29q-16 0 -18 -2v184h63v-111z" />
    <glyph glyph-name="onesuperior" unicode="&#xb9;" horiz-adv-x="764" 
d="M446 582h-100v798h-168v76h268v-874z" />
    <glyph glyph-name="ordmasculine" unicode="&#xba;" horiz-adv-x="932" 
d="M152 1071q0 -132 90.5 -221.5t224.5 -89.5q133 0 223 89.5t90 223.5q0 132 -91 222.5t-230 90.5q-126 0 -216.5 -90.5t-90.5 -224.5zM41 1071q0 168 124 289t294 121q181 0 306.5 -117.5t125.5 -282.5q0 -173 -124 -294t-300 -121q-181 0 -303.5 119t-122.5 286z" />
    <glyph glyph-name="guillemotright" unicode="&#xbb;" horiz-adv-x="934" 
d="M573 229h-135l246 320l-246 321h135l248 -321zM270 229h-137l248 320l-248 321h137l246 -321z" />
    <glyph glyph-name="onequarter" unicode="&#xbc;" horiz-adv-x="1800" 
d="M1559 227l4 494l-342 -494h338zM1645 0h-89v158h-430v69l416 588h103v-588h100v-69h-100v-158zM508 -29h-121l905 1514h119zM426 641h-96v745h-160v70h256v-815z" />
    <glyph glyph-name="onehalf" unicode="&#xbd;" horiz-adv-x="1800" 
d="M1724 0h-569v80l326 272q96 81 126 129l13 24l9 23l7 25l2 27q0 75 -56 128q-28 26 -65 39q-25 8 -42.5 10.5t-34.5 2.5q-91 0 -144 -53t-53 -142v-22h-88v12q0 123 81 201t210 78q116 0 198 -76t82 -185q0 -63 -33.5 -121t-109.5 -120l-309 -252h450v-80zM508 -29h-121
l905 1514h119zM426 641h-96v745h-160v70h256v-815z" />
    <glyph glyph-name="threequarters" unicode="&#xbe;" horiz-adv-x="1800" 
d="M1559 227l4 494l-342 -494h338zM1645 0h-89v158h-430v69l416 588h103v-588h100v-69h-100v-158zM508 -29h-121l905 1514h119zM160 889v-6q0 -81 57 -135t139 -54q90 0 148.5 53t58.5 136q0 89 -63.5 139.5t-180.5 50.5h-43l1 68l15 -2h25q84 0 137 33q21 15 33.5 41.5
t12.5 58.5q0 57 -40 94t-98 37q-66 0 -105.5 -36.5t-39.5 -100.5h-84q0 49 17 82.5t52 68.5q64 56 165 56q93 0 159 -59.5t66 -141.5q0 -43 -20 -81t-68 -71q74 -33 111.5 -92.5t37.5 -136.5q0 -111 -83.5 -188.5t-209.5 -77.5q-132 0 -212 70q-40 35 -60 83.5t-20 110.5h92
z" />
    <glyph glyph-name="questiondown" unicode="&#xbf;" horiz-adv-x="948" 
d="M387 1058l143 1q0 -97 -38 -184t-115 -170l-54 -54q-126 -117 -126 -252q0 -129 70.5 -204.5t193.5 -75.5q129 0 201 84q35 41 57 105.5t22 135.5h148q0 -105 -30.5 -190t-92.5 -153q-121 -130 -313 -130q-182 0 -295 119t-113 309q0 186 167 338l24 21
q78 72 114.5 145.5t36.5 154.5zM530 1456v-266h-143v266h143z" />
    <glyph glyph-name="Agrave" unicode="&#xc0;" horiz-adv-x="1223" 
d="M100 0h-151l565 1456h172l563 -1456h-153l-174 457h-648zM872 588l-276 731l-272 -731h548zM631 1597l-269 350h152l209 -350h-92z" />
    <glyph glyph-name="Aacute" unicode="&#xc1;" horiz-adv-x="1223" 
d="M100 0h-151l565 1456h172l563 -1456h-153l-174 457h-648zM872 588l-276 731l-272 -731h548zM565 1597h-92l209 350h152z" />
    <glyph glyph-name="Acircumflex" unicode="&#xc2;" horiz-adv-x="1223" 
d="M100 0h-151l565 1456h172l563 -1456h-153l-174 457h-648zM872 588l-276 731l-272 -731h548zM322 1597l200 350h152l200 -350h-92l-184 264l-184 -264h-92z" />
    <glyph glyph-name="Atilde" unicode="&#xc3;" horiz-adv-x="1223" 
d="M100 0h-151l565 1456h172l563 -1456h-153l-174 457h-648zM872 588l-276 731l-272 -731h548zM887 1849q-24 -88 -74 -136t-117 -48h-13l-17 2l-35 8l-97 31l-28 6l-25 2q-26 0 -53 -18q-22 -19 -39 -56h-80q21 90 71.5 137.5t123.5 47.5l29 -3l24 -6l96 -30l28 -8l28 -3
q33 0 53.5 15.5t42.5 58.5h82z" />
    <glyph glyph-name="Adieresis" unicode="&#xc4;" horiz-adv-x="1223" 
d="M100 0h-151l565 1456h172l563 -1456h-153l-174 457h-648zM872 588l-276 731l-272 -731h548zM711 1663v164h143v-164h-143zM342 1663v164h141v-164h-141z" />
    <glyph glyph-name="Aring" unicode="&#xc5;" horiz-adv-x="1223" 
d="M461 1743q0 -59 41 -100t100 -41q60 0 101.5 41t41.5 100t-43 102t-100 43t-99 -42.5t-42 -102.5zM371 1743q0 95 67 162t162 67t162 -67t67 -162t-67 -162.5t-162 -67.5q-93 0 -161 66.5t-68 163.5zM872 588l-276 731l-272 -731h548zM100 0h-151l565 1456h172l563 -1456
h-153l-174 457h-648z" />
    <glyph glyph-name="AE" unicode="&#xc6;" horiz-adv-x="1810" 
d="M465 627h473l6 686h-16zM367 483l-330 -483h-172l1001 1456h824v-143h-613v-510h613v-144h-613v-518h613v-141h-756v483h-567z" />
    <glyph glyph-name="Ccedilla" unicode="&#xc7;" horiz-adv-x="1540" 
d="M1296 1079q-96 132 -218.5 198t-276.5 66q-240 0 -414 -180.5t-174 -427.5q0 -261 171 -443.5t417 -182.5q146 0 271 63t214 188h170q-99 -186 -268 -287.5t-377 -101.5q-316 0 -533 219t-217 547q0 151 56.5 287t171.5 250q102 102 232.5 156.5t281.5 54.5
q216 0 387.5 -103.5t277.5 -302.5h-172zM801 -111h20q107 0 163.5 -44t56.5 -128q0 -81 -61 -128.5t-167 -47.5q-53 0 -109.5 9t-142.5 30v78q92 -20 145 -27l49 -6l44 -2q64 0 96 23q33 21 33 67q0 54 -34.5 79.5t-108.5 25.5h-29q-16 0 -18 -2v184h63v-111z" />
    <glyph glyph-name="Egrave" unicode="&#xc8;" horiz-adv-x="1028" 
d="M279 803h612v-144h-612v-518h612v-141h-756v1456h756v-143h-612v-510zM561 1597l-269 350h152l209 -350h-92z" />
    <glyph glyph-name="Eacute" unicode="&#xc9;" horiz-adv-x="1028" 
d="M279 803h612v-144h-612v-518h612v-141h-756v1456h756v-143h-612v-510zM495 1597h-92l209 350h152z" />
    <glyph glyph-name="Ecircumflex" unicode="&#xca;" horiz-adv-x="1028" 
d="M279 803h612v-144h-612v-518h612v-141h-756v1456h756v-143h-612v-510zM252 1597l200 350h152l200 -350h-92l-184 264l-184 -264h-92z" />
    <glyph glyph-name="Edieresis" unicode="&#xcb;" horiz-adv-x="1028" 
d="M279 803h612v-144h-612v-518h612v-141h-756v1456h756v-143h-612v-510zM641 1663v164h143v-164h-143zM272 1663v164h141v-164h-141z" />
    <glyph glyph-name="Igrave" unicode="&#xcc;" horiz-adv-x="412" 
d="M276 0h-143v1456h143v-1456zM240 1597l-269 350h152l209 -350h-92z" />
    <glyph glyph-name="Iacute" unicode="&#xcd;" horiz-adv-x="412" 
d="M276 0h-143v1456h143v-1456zM174 1597h-92l209 350h152z" />
    <glyph glyph-name="Icircumflex" unicode="&#xce;" horiz-adv-x="412" 
d="M276 0h-143v1456h143v-1456zM-69 1597l200 350h152l200 -350h-92l-184 264l-184 -264h-92z" />
    <glyph glyph-name="Idieresis" unicode="&#xcf;" horiz-adv-x="412" 
d="M276 0h-143v1456h143v-1456zM320 1663v164h143v-164h-143zM-49 1663v164h141v-164h-141z" />
    <glyph glyph-name="Eth" unicode="&#xd0;" horiz-adv-x="1612" 
d="M643 698h905q0 -154 -58.5 -284t-170.5 -239q-210 -204 -518 -204q-315 0 -527.5 220t-212.5 546q0 151 56.5 287.5t167 244.5t244.5 164q67 26 143.5 39t146.5 13q210 0 378.5 -102t272.5 -293h-176q-102 129 -220.5 192.5t-262.5 63.5q-246 0 -423 -180
q-88 -91 -131.5 -198.5t-43.5 -232.5q0 -268 173 -447t427 -179q200 0 358.5 128t206.5 332h-735v129zM533 1904h79q0 -36 12 -61.5t41 -48.5q47 -35 142 -35q96 0 138.5 32.5t54.5 112.5h81q0 -67 -19.5 -115t-55.5 -84q-65 -63 -199 -63q-127 0 -199 63q-33 33 -55 83
q-20 52 -20 116z" />
    <glyph glyph-name="Ntilde" unicode="&#xd1;" horiz-adv-x="1366" 
d="M1102 174l-17 1282h142v-1456h-172l-799 1284l16 -1284h-141v1456h172zM973 1849q-24 -88 -74 -136t-117 -48h-13l-17 2l-35 8l-97 31l-28 6l-25 2q-26 0 -53 -18q-22 -19 -39 -56h-80q21 90 71.5 137.5t123.5 47.5l29 -3l24 -6l96 -30l28 -8l28 -3q33 0 53.5 15.5
t42.5 58.5h82z" />
    <glyph glyph-name="Ograve" unicode="&#xd2;" horiz-adv-x="1612" 
d="M211 735q0 -266 173 -446t427 -180q246 0 418 182q86 92 129 203q21 56 32 116.5t11 128.5q0 248 -176 427.5t-424 179.5q-103 0 -196 -33.5t-171 -102.5q-101 -83 -162 -212.5t-61 -262.5zM61 737q0 152 58.5 290.5t169.5 246.5q103 101 233.5 156t280.5 55
q78 0 148.5 -12.5t134.5 -40.5q131 -53 237 -157t165.5 -243.5t59.5 -294.5q0 -78 -11 -145t-36 -136q-46 -128 -145 -239q-107 -116 -250.5 -181t-304.5 -65q-310 0 -525 221t-215 545zM840 1597l-269 350h152l209 -350h-92z" />
    <glyph glyph-name="Oacute" unicode="&#xd3;" horiz-adv-x="1612" 
d="M211 735q0 -266 173 -446t427 -180q246 0 418 182q86 92 129 203q21 56 32 116.5t11 128.5q0 248 -176 427.5t-424 179.5q-103 0 -196 -33.5t-171 -102.5q-101 -83 -162 -212.5t-61 -262.5zM61 737q0 152 58.5 290.5t169.5 246.5q103 101 233.5 156t280.5 55
q78 0 148.5 -12.5t134.5 -40.5q131 -53 237 -157t165.5 -243.5t59.5 -294.5q0 -78 -11 -145t-36 -136q-46 -128 -145 -239q-107 -116 -250.5 -181t-304.5 -65q-310 0 -525 221t-215 545zM774 1597h-92l209 350h152z" />
    <glyph glyph-name="Ocircumflex" unicode="&#xd4;" horiz-adv-x="1612" 
d="M211 735q0 -266 173 -446t427 -180q246 0 418 182q86 92 129 203q21 56 32 116.5t11 128.5q0 248 -176 427.5t-424 179.5q-103 0 -196 -33.5t-171 -102.5q-101 -83 -162 -212.5t-61 -262.5zM61 737q0 152 58.5 290.5t169.5 246.5q103 101 233.5 156t280.5 55
q78 0 148.5 -12.5t134.5 -40.5q131 -53 237 -157t165.5 -243.5t59.5 -294.5q0 -78 -11 -145t-36 -136q-46 -128 -145 -239q-107 -116 -250.5 -181t-304.5 -65q-310 0 -525 221t-215 545zM531 1597l200 350h152l200 -350h-92l-184 264l-184 -264h-92z" />
    <glyph glyph-name="Otilde" unicode="&#xd5;" horiz-adv-x="1612" 
d="M211 735q0 -266 173 -446t427 -180q246 0 418 182q86 92 129 203q21 56 32 116.5t11 128.5q0 248 -176 427.5t-424 179.5q-103 0 -196 -33.5t-171 -102.5q-101 -83 -162 -212.5t-61 -262.5zM61 737q0 152 58.5 290.5t169.5 246.5q103 101 233.5 156t280.5 55
q78 0 148.5 -12.5t134.5 -40.5q131 -53 237 -157t165.5 -243.5t59.5 -294.5q0 -78 -11 -145t-36 -136q-46 -128 -145 -239q-107 -116 -250.5 -181t-304.5 -65q-310 0 -525 221t-215 545zM1096 1849q-24 -88 -74 -136t-117 -48h-13l-17 2l-35 8l-97 31l-28 6l-25 2
q-26 0 -53 -18q-22 -19 -39 -56h-80q21 90 71.5 137.5t123.5 47.5l29 -3l24 -6l96 -30l28 -8l28 -3q33 0 53.5 15.5t42.5 58.5h82z" />
    <glyph glyph-name="Odieresis" unicode="&#xd6;" horiz-adv-x="1612" 
d="M211 735q0 -266 173 -446t427 -180q246 0 418 182q86 92 129 203q21 56 32 116.5t11 128.5q0 248 -176 427.5t-424 179.5q-103 0 -196 -33.5t-171 -102.5q-101 -83 -162 -212.5t-61 -262.5zM61 737q0 152 58.5 290.5t169.5 246.5q103 101 233.5 156t280.5 55
q78 0 148.5 -12.5t134.5 -40.5q131 -53 237 -157t165.5 -243.5t59.5 -294.5q0 -78 -11 -145t-36 -136q-46 -128 -145 -239q-107 -116 -250.5 -181t-304.5 -65q-310 0 -525 221t-215 545zM920 1663v164h143v-164h-143zM551 1663v164h141v-164h-141z" />
    <glyph glyph-name="multiply" unicode="&#xd7;" horiz-adv-x="1706" 
d="M856 680l481 481l70 -69l-481 -482l481 -481l-70 -70l-481 482l-481 -482l-70 70l481 481l-481 482l70 69z" />
    <glyph glyph-name="Oslash" unicode="&#xd8;" horiz-adv-x="1612" 
d="M377 303l770 928q-82 61 -161 87q-39 14 -81 21l-42 5l-46 2q-248 0 -427 -180q-87 -90 -131 -199t-44 -232q0 -121 42 -233t120 -199zM1237 1147l-768 -924q83 -54 165 -84q43 -14 83 -21l41 -5l45 -2q247 0 422.5 180.5t175.5 443.5q0 122 -39.5 221t-124.5 191z
M283 188q-106 117 -163 260t-57 291q0 154 58 289q15 37 31.5 67.5t38.5 61.5l20 29l24 29l56 59q104 101 237.5 156t284.5 55h38q21 0 29 -2l31 -1l36 -7q14 -1 19.5 -2t19.5 -6l53 -17q106 -33 202 -107l172 207l96 -75l-178 -213q109 -104 162 -236q23 -57 39 -135
q8 -42 12 -77t4 -77q0 -328 -213.5 -546t-531.5 -218q-120 0 -222 33q-24 7 -49.5 17.5t-53 25.5t-49.5 28.5t-52 35.5l-207 -250l-94 78z" />
    <glyph glyph-name="Ugrave" unicode="&#xd9;" horiz-adv-x="1157" 
d="M113 1456h143v-921q0 -124 8 -160l3 -22l7 -28l19 -44q38 -76 114.5 -126.5t170.5 -50.5q164 0 243.5 114.5t79.5 346.5v891h141v-926q0 -282 -112.5 -421.5t-341.5 -139.5q-245 0 -360 136t-115 425v926zM613 1597l-269 350h152l209 -350h-92z" />
    <glyph glyph-name="Uacute" unicode="&#xda;" horiz-adv-x="1157" 
d="M113 1456h143v-921q0 -124 8 -160l3 -22l7 -28l19 -44q38 -76 114.5 -126.5t170.5 -50.5q164 0 243.5 114.5t79.5 346.5v891h141v-926q0 -282 -112.5 -421.5t-341.5 -139.5q-245 0 -360 136t-115 425v926zM547 1597h-92l209 350h152z" />
    <glyph glyph-name="Ucircumflex" unicode="&#xdb;" horiz-adv-x="1157" 
d="M113 1456h143v-921q0 -124 8 -160l3 -22l7 -28l19 -44q38 -76 114.5 -126.5t170.5 -50.5q164 0 243.5 114.5t79.5 346.5v891h141v-926q0 -282 -112.5 -421.5t-341.5 -139.5q-245 0 -360 136t-115 425v926zM304 1597l200 350h152l200 -350h-92l-184 264l-184 -264h-92z
" />
    <glyph glyph-name="Udieresis" unicode="&#xdc;" horiz-adv-x="1157" 
d="M113 1456h143v-921q0 -124 8 -160l3 -22l7 -28l19 -44q38 -76 114.5 -126.5t170.5 -50.5q164 0 243.5 114.5t79.5 346.5v891h141v-926q0 -282 -112.5 -421.5t-341.5 -139.5q-245 0 -360 136t-115 425v926zM693 1663v164h143v-164h-143zM324 1663v164h141v-164h-141z" />
    <glyph glyph-name="Yacute" unicode="&#xdd;" horiz-adv-x="412" 
d="M276 0h-143v1456h143v-1456zM131 1669v176h152v-176h-152z" />
    <glyph glyph-name="Thorn" unicode="&#xde;" horiz-adv-x="952" 
d="M477 -111h20q107 0 163.5 -44t56.5 -128q0 -81 -61 -128.5t-167 -47.5q-53 0 -109.5 9t-142.5 30v78q92 -20 145 -27l49 -6l44 -2q64 0 96 23q33 21 33 67q0 54 -34.5 79.5t-108.5 25.5h-29q-16 0 -18 -2l1 157q-145 13 -243 120q-52 59 -83 141.5t-31 181.5h138
q0 -65 18 -117t58 -98q72 -80 191 -80q126 0 201 79.5t75 215.5q0 192 -306 299l-36 12q-160 54 -230.5 139t-70.5 221q0 174 108 285t281 111q162 0 260 -101q45 -48 76 -121.5t31 -162.5h-135q0 57 -19 102.5t-53 80.5q-60 65 -160 65q-109 0 -177 -70.5t-68 -179.5
q0 -61 20 -97.5t66 -75.5q37 -29 176 -77l114 -39q142 -54 204.5 -138.5t62.5 -226.5q0 -214 -115 -342q-56 -62 -128.5 -95.5t-161.5 -33.5z" />
    <glyph glyph-name="germandbls" unicode="&#xdf;" horiz-adv-x="1200" 
d="M256 981v-623h139q39 -129 112.5 -192.5t180.5 -63.5q122 0 211.5 85.5t89.5 201.5q0 147 -99.5 222t-295.5 75h-90v115h6q128 0 208.5 72t80.5 196q0 112 -78.5 189t-196.5 77q-123 0 -195.5 -75.5t-72.5 -206.5v-72zM115 965q0 258 102.5 381.5t310.5 123.5
q187 0 303.5 -111.5t116.5 -289.5q0 -99 -39.5 -168.5t-109.5 -91.5q160 -36 250 -139t90 -256q0 -189 -130 -316t-325 -127q-158 0 -262.5 77.5t-165.5 240.5v-289h-141v965z" />
    <glyph glyph-name="agrave" unicode="&#xe0;" horiz-adv-x="1290" 
d="M1042 557q0 174 -125 305t-288 131q-177 0 -301.5 -130.5t-124.5 -323.5q0 -180 123 -308.5t299 -128.5q168 0 292.5 133.5t124.5 321.5zM1042 174q-62 -91 -176.5 -147t-244.5 -56q-236 0 -400 165.5t-164 408.5t165 411t411 168q127 0 231.5 -51.5t177.5 -148.5v176
h138v-1100h-138v174zM668 1247l-269 350h152l209 -350h-92z" />
    <glyph glyph-name="aacute" unicode="&#xe1;" horiz-adv-x="1290" 
d="M1042 557q0 174 -125 305t-288 131q-177 0 -301.5 -130.5t-124.5 -323.5q0 -180 123 -308.5t299 -128.5q168 0 292.5 133.5t124.5 321.5zM1042 174q-62 -91 -176.5 -147t-244.5 -56q-236 0 -400 165.5t-164 408.5t165 411t411 168q127 0 231.5 -51.5t177.5 -148.5v176
h138v-1100h-138v174zM602 1247h-92l209 350h152z" />
    <glyph glyph-name="acircumflex" unicode="&#xe2;" horiz-adv-x="1290" 
d="M1042 557q0 174 -125 305t-288 131q-177 0 -301.5 -130.5t-124.5 -323.5q0 -180 123 -308.5t299 -128.5q168 0 292.5 133.5t124.5 321.5zM1042 174q-62 -91 -176.5 -147t-244.5 -56q-236 0 -400 165.5t-164 408.5t165 411t411 168q127 0 231.5 -51.5t177.5 -148.5v176
h138v-1100h-138v174zM359 1247l200 350h152l200 -350h-92l-184 264l-184 -264h-92z" />
    <glyph glyph-name="atilde" unicode="&#xe3;" horiz-adv-x="1290" 
d="M1042 557q0 174 -125 305t-288 131q-177 0 -301.5 -130.5t-124.5 -323.5q0 -180 123 -308.5t299 -128.5q168 0 292.5 133.5t124.5 321.5zM1042 174q-62 -91 -176.5 -147t-244.5 -56q-236 0 -400 165.5t-164 408.5t165 411t411 168q127 0 231.5 -51.5t177.5 -148.5v176
h138v-1100h-138v174zM924 1499q-24 -88 -74 -136t-117 -48h-13l-17 2l-35 8l-97 31l-28 6l-25 2q-26 0 -53 -18q-22 -19 -39 -56h-80q21 90 71.5 137.5t123.5 47.5l29 -3l24 -6l96 -30l28 -8l28 -3q33 0 53.5 15.5t42.5 58.5h82z" />
    <glyph glyph-name="adieresis" unicode="&#xe4;" horiz-adv-x="1290" 
d="M1042 557q0 174 -125 305t-288 131q-177 0 -301.5 -130.5t-124.5 -323.5q0 -180 123 -308.5t299 -128.5q168 0 292.5 133.5t124.5 321.5zM1042 174q-62 -91 -176.5 -147t-244.5 -56q-236 0 -400 165.5t-164 408.5t165 411t411 168q127 0 231.5 -51.5t177.5 -148.5v176
h138v-1100h-138v174zM748 1313v164h143v-164h-143zM379 1313v164h141v-164h-141z" />
    <glyph glyph-name="aring" unicode="&#xe5;" horiz-adv-x="1290" 
d="M506 1413q0 -59 41.5 -101t99.5 -42q54 0 99 42t45 101q0 57 -43 100t-101 43q-52 0 -96.5 -41.5t-44.5 -101.5zM416 1411q0 95 67 162t162 67q96 0 164 -66.5t68 -162.5q0 -92 -70 -160.5t-162 -68.5q-93 0 -162 66q-30 30 -50 73q-17 43 -17 90zM1042 174
q-62 -91 -176.5 -147t-244.5 -56q-236 0 -400 165.5t-164 408.5t165 411t411 168q127 0 231.5 -51.5t177.5 -148.5v176h138v-1100h-138v174zM1042 557q0 174 -125 305t-288 131q-177 0 -301.5 -130.5t-124.5 -323.5q0 -180 123 -308.5t299 -128.5q168 0 292.5 133.5
t124.5 321.5z" />
    <glyph glyph-name="ae" unicode="&#xe6;" horiz-adv-x="2228" 
d="M1180 0h-142v154q-82 -90 -188.5 -137.5t-228.5 -47.5q-240 0 -402 166.5t-162 409.5t165 411t411 168q115 0 210.5 -42.5t194.5 -139.5v158h142v-162q83 89 198 139q47 20 112.5 33.5t125.5 13.5q245 0 402 -169.5t157 -438.5v-14h-987q0 -84 33 -156.5t98 -132.5
q117 -111 289 -111q118 0 218.5 63t155.5 179h158q-75 -180 -211.5 -277.5t-316.5 -97.5q-132 0 -240 45q-55 23 -102 57t-90 83v-154zM2023 625q-36 177 -145 274.5t-268 97.5q-164 0 -275.5 -99.5t-142.5 -272.5h831zM1042 557q0 171 -125.5 305.5t-287.5 134.5
q-174 0 -300 -132.5t-126 -325.5q0 -180 123 -308.5t299 -128.5q168 0 292.5 133.5t124.5 321.5z" />
    <glyph glyph-name="ccedilla" unicode="&#xe7;" horiz-adv-x="1241" 
d="M993 762q-63 120 -160.5 177.5t-220.5 57.5q-168 0 -287.5 -130t-119.5 -318q0 -190 119 -317.5t294 -127.5q127 0 222.5 62t152.5 178h156q-63 -173 -201 -275q-69 -50 -148.5 -75t-174.5 -25q-237 0 -402.5 169.5t-165.5 408.5q0 243 166.5 413t405.5 170
q176 0 312.5 -96t207.5 -272h-156zM621 -111h20q107 0 163.5 -44t56.5 -128q0 -81 -61 -128.5t-167 -47.5q-53 0 -109.5 9t-142.5 30v78q92 -20 145 -27l49 -6l44 -2q64 0 96 23q33 21 33 67q0 54 -34.5 79.5t-108.5 25.5h-29q-16 0 -18 -2v184h63v-111z" />
    <glyph glyph-name="egrave" unicode="&#xe8;" horiz-adv-x="1241" 
d="M1192 506h-993l1 -46q0 -12 1.5 -19t6.5 -26q3 -17 9 -33t17 -39q30 -69 95 -128q117 -111 292 -111q122 0 219.5 62.5t156.5 181.5h160q-72 -180 -211.5 -279.5t-320.5 -99.5q-237 0 -404.5 171.5t-167.5 410.5q0 249 162 414t416 165q243 0 402 -171.5t159 -442.5v-10z
M1036 625q-39 180 -148 277q-52 45 -122 70t-156 25q-79 0 -147 -24.5t-124 -76.5q-111 -99 -136 -271h833zM666 1247l-269 350h152l209 -350h-92z" />
    <glyph glyph-name="eacute" unicode="&#xe9;" horiz-adv-x="1241" 
d="M1192 506h-993l1 -46q0 -12 1.5 -19t6.5 -26q3 -17 9 -33t17 -39q30 -69 95 -128q117 -111 292 -111q122 0 219.5 62.5t156.5 181.5h160q-72 -180 -211.5 -279.5t-320.5 -99.5q-237 0 -404.5 171.5t-167.5 410.5q0 249 162 414t416 165q243 0 402 -171.5t159 -442.5v-10z
M1036 625q-39 180 -148 277q-52 45 -122 70t-156 25q-79 0 -147 -24.5t-124 -76.5q-111 -99 -136 -271h833zM600 1247h-92l209 350h152z" />
    <glyph glyph-name="ecircumflex" unicode="&#xea;" horiz-adv-x="1241" 
d="M1192 506h-993l1 -46q0 -12 1.5 -19t6.5 -26q3 -17 9 -33t17 -39q30 -69 95 -128q117 -111 292 -111q122 0 219.5 62.5t156.5 181.5h160q-72 -180 -211.5 -279.5t-320.5 -99.5q-237 0 -404.5 171.5t-167.5 410.5q0 249 162 414t416 165q243 0 402 -171.5t159 -442.5v-10z
M1036 625q-39 180 -148 277q-52 45 -122 70t-156 25q-79 0 -147 -24.5t-124 -76.5q-111 -99 -136 -271h833zM357 1247l200 350h152l200 -350h-92l-184 264l-184 -264h-92z" />
    <glyph glyph-name="edieresis" unicode="&#xeb;" horiz-adv-x="1241" 
d="M1192 506h-993l1 -46q0 -12 1.5 -19t6.5 -26q3 -17 9 -33t17 -39q30 -69 95 -128q117 -111 292 -111q122 0 219.5 62.5t156.5 181.5h160q-72 -180 -211.5 -279.5t-320.5 -99.5q-237 0 -404.5 171.5t-167.5 410.5q0 249 162 414t416 165q243 0 402 -171.5t159 -442.5v-10z
M1036 625q-39 180 -148 277q-52 45 -122 70t-156 25q-79 0 -147 -24.5t-124 -76.5q-111 -99 -136 -271h833zM746 1313v164h143v-164h-143zM377 1313v164h141v-164h-141z" />
    <glyph glyph-name="igrave" unicode="&#xec;" horiz-adv-x="371" 
d="M115 0v1100h141v-1100h-141zM219 1247l-269 350h152l209 -350h-92z" />
    <glyph glyph-name="iacute" unicode="&#xed;" horiz-adv-x="371" 
d="M115 0v1100h141v-1100h-141zM153 1247h-92l209 350h152z" />
    <glyph glyph-name="icircumflex" unicode="&#xee;" horiz-adv-x="371" 
d="M115 0v1100h141v-1100h-141zM-90 1247l200 350h152l200 -350h-92l-184 264l-184 -264h-92z" />
    <glyph glyph-name="idieresis" unicode="&#xef;" horiz-adv-x="371" 
d="M115 0v1100h141v-1100h-141zM299 1313v164h143v-164h-143zM-70 1313v164h141v-164h-141z" />
    <glyph glyph-name="eth" unicode="&#xf0;" horiz-adv-x="1280" 
d="M301 -90q30 -92 115 -147.5t205 -55.5q188 0 301.5 125t113.5 334v29q-78 -108 -183 -165q-47 -25 -105 -40t-119 -15q-242 0 -409 165.5t-167 412.5q0 243 162 408t401 165q68 0 130 -12l57 -15q11 -4 26 -10t28 -13q94 -44 179 -156v180h138v-918q0 -289 -144.5 -450.5
t-398.5 -161.5q-187 0 -319 91t-175 249h164zM203 559q0 -188 123 -320.5t295 -132.5q159 0 286 131t127 306q0 186 -123.5 320t-289.5 134q-171 0 -294.5 -126.5t-123.5 -311.5zM367 1554h79q0 -36 12 -61.5t41 -48.5q47 -35 142 -35q96 0 138.5 32.5t54.5 112.5h81
q0 -67 -19.5 -115t-55.5 -84q-65 -63 -199 -63q-127 0 -199 63q-33 33 -55 83q-20 52 -20 116z" />
    <glyph glyph-name="ntilde" unicode="&#xf1;" horiz-adv-x="1143" 
d="M113 1100h137v-125q65 75 150.5 111t195.5 36q116 0 212 -44t153 -130q38 -58 54.5 -141t16.5 -232v-575h-139v616q0 191 -74.5 281t-238.5 90q-93 0 -167.5 -38.5t-115.5 -110.5q-20 -39 -37 -103l-7 -82l-3 -118v-535h-137v1100zM873 1499q-24 -88 -74 -136t-117 -48
h-13l-17 2l-35 8l-97 31l-28 6l-25 2q-26 0 -53 -18q-22 -19 -39 -56h-80q21 90 71.5 137.5t123.5 47.5l29 -3l24 -6l96 -30l28 -8l28 -3q33 0 53.5 15.5t42.5 58.5h82z" />
    <glyph glyph-name="ograve" unicode="&#xf2;" horiz-adv-x="1241" 
d="M201 551q0 -189 120 -318t302 -129q178 0 297.5 128.5t119.5 320.5q0 195 -120.5 320.5t-309.5 125.5q-164 0 -286.5 -130t-122.5 -318zM53 549q0 242 166 414t393 172q237 0 406.5 -168.5t169.5 -403.5q0 -246 -165 -420t-400 -174q-239 0 -404.5 170.5t-165.5 409.5z
M664 1247l-269 350h152l209 -350h-92z" />
    <glyph glyph-name="oacute" unicode="&#xf3;" horiz-adv-x="1241" 
d="M201 551q0 -189 120 -318t302 -129q178 0 297.5 128.5t119.5 320.5q0 195 -120.5 320.5t-309.5 125.5q-164 0 -286.5 -130t-122.5 -318zM53 549q0 242 166 414t393 172q237 0 406.5 -168.5t169.5 -403.5q0 -246 -165 -420t-400 -174q-239 0 -404.5 170.5t-165.5 409.5z
M598 1247h-92l209 350h152z" />
    <glyph glyph-name="ocircumflex" unicode="&#xf4;" horiz-adv-x="1241" 
d="M201 551q0 -189 120 -318t302 -129q178 0 297.5 128.5t119.5 320.5q0 195 -120.5 320.5t-309.5 125.5q-164 0 -286.5 -130t-122.5 -318zM53 549q0 242 166 414t393 172q237 0 406.5 -168.5t169.5 -403.5q0 -246 -165 -420t-400 -174q-239 0 -404.5 170.5t-165.5 409.5z
M355 1247l200 350h152l200 -350h-92l-184 264l-184 -264h-92z" />
    <glyph glyph-name="otilde" unicode="&#xf5;" horiz-adv-x="1241" 
d="M201 551q0 -189 120 -318t302 -129q178 0 297.5 128.5t119.5 320.5q0 195 -120.5 320.5t-309.5 125.5q-164 0 -286.5 -130t-122.5 -318zM53 549q0 242 166 414t393 172q237 0 406.5 -168.5t169.5 -403.5q0 -246 -165 -420t-400 -174q-239 0 -404.5 170.5t-165.5 409.5z
M920 1499q-24 -88 -74 -136t-117 -48h-13l-17 2l-35 8l-97 31l-28 6l-25 2q-26 0 -53 -18q-22 -19 -39 -56h-80q21 90 71.5 137.5t123.5 47.5l29 -3l24 -6l96 -30l28 -8l28 -3q33 0 53.5 15.5t42.5 58.5h82z" />
    <glyph glyph-name="odieresis" unicode="&#xf6;" horiz-adv-x="1241" 
d="M201 551q0 -189 120 -318t302 -129q178 0 297.5 128.5t119.5 320.5q0 195 -120.5 320.5t-309.5 125.5q-164 0 -286.5 -130t-122.5 -318zM53 549q0 242 166 414t393 172q237 0 406.5 -168.5t169.5 -403.5q0 -246 -165 -420t-400 -174q-239 0 -404.5 170.5t-165.5 409.5z
M744 1313v164h143v-164h-143zM375 1313v164h141v-164h-141z" />
    <glyph glyph-name="divide" unicode="&#xf7;" horiz-adv-x="1706" 
d="M854 365q45 0 76 -31t31 -76q0 -44 -31 -75t-76 -31q-42 0 -75 30q-31 31 -31 76q0 41 30 74t76 33zM1452 659v-98h-1198v98h1198zM854 1071q44 0 75.5 -32t31.5 -76q0 -45 -31 -76t-76 -31q-42 0 -75 30q-31 31 -31 77q0 44 31.5 76t74.5 32z" />
    <glyph glyph-name="oslash" unicode="&#xf8;" horiz-adv-x="1241" 
d="M115 -137l-84 80l176 211q-68 73 -111 181t-43 214q0 239 165.5 411.5t402.5 172.5l41 -1h24q12 -3 17 -4l31 -5q10 0 16 -3l41 -13q70 -20 149 -75l168 201l92 -72l-172 -207q74 -75 117 -180q21 -52 32 -106.5t11 -112.5q0 -244 -167 -415t-411 -171q-47 0 -86 7
q-45 6 -78 19q-76 24 -153 79zM381 180q50 -36 105 -57q16 -5 29 -8t30 -6t28.5 -4t34.5 -1q186 0 309 126t123 325q0 76 -24 154q-9 30 -30 70q-18 38 -44 71zM852 926q-41 35 -104 54q-10 3 -22 6t-40 7.5t-41.5 5t-21.5 0.5q-180 0 -301 -127t-121 -321q0 -86 24 -158.5
t70 -132.5z" />
    <glyph glyph-name="ugrave" unicode="&#xf9;" horiz-adv-x="1143" 
d="M109 1100h139v-584q0 -222 72.5 -317t240.5 -95q96 0 166 37.5t117 112.5q20 38 33.5 103.5t13.5 201.5v541h141v-1100h-141v119q-60 -75 -141.5 -111.5t-192.5 -36.5q-237 0 -342.5 128.5t-105.5 426.5v574zM598 1247l-269 350h152l209 -350h-92z" />
    <glyph glyph-name="uacute" unicode="&#xfa;" horiz-adv-x="1143" 
d="M109 1100h139v-584q0 -222 72.5 -317t240.5 -95q96 0 166 37.5t117 112.5q20 38 33.5 103.5t13.5 201.5v541h141v-1100h-141v119q-60 -75 -141.5 -111.5t-192.5 -36.5q-237 0 -342.5 128.5t-105.5 426.5v574zM532 1247h-92l209 350h152z" />
    <glyph glyph-name="ucircumflex" unicode="&#xfb;" horiz-adv-x="1143" 
d="M109 1100h139v-584q0 -222 72.5 -317t240.5 -95q96 0 166 37.5t117 112.5q20 38 33.5 103.5t13.5 201.5v541h141v-1100h-141v119q-60 -75 -141.5 -111.5t-192.5 -36.5q-237 0 -342.5 128.5t-105.5 426.5v574zM289 1247l200 350h152l200 -350h-92l-184 264l-184 -264h-92z
" />
    <glyph glyph-name="udieresis" unicode="&#xfc;" horiz-adv-x="1143" 
d="M109 1100h139v-584q0 -222 72.5 -317t240.5 -95q96 0 166 37.5t117 112.5q20 38 33.5 103.5t13.5 201.5v541h141v-1100h-141v119q-60 -75 -141.5 -111.5t-192.5 -36.5q-237 0 -342.5 128.5t-105.5 426.5v574zM678 1313v164h143v-164h-143zM309 1313v164h141v-164h-141z
" />
    <glyph glyph-name="yacute" unicode="&#xfd;" horiz-adv-x="371" 
d="M115 0v1100h141v-1100h-141z" />
    <glyph glyph-name="thorn" unicode="&#xfe;" horiz-adv-x="797" 
d="M399 -111h20q107 0 163.5 -44t56.5 -128q0 -81 -61 -128.5t-167 -47.5q-53 0 -109.5 9t-142.5 30v78q92 -20 145 -27l49 -6l44 -2q64 0 96 23q33 21 33 67q0 54 -34.5 79.5t-108.5 25.5h-29q-16 0 -18 -2v159q-118 15 -194 97q-44 49 -71.5 120.5t-27.5 153.5h145v-4
q0 -103 59 -170.5t146 -67.5q83 0 138 52t55 131q0 78 -42.5 127t-158.5 90q-178 63 -236.5 132.5t-58.5 182.5q0 129 93 219t227 90q141 0 224 -80q39 -37 64 -95q11 -26 18 -59.5t7 -68.5h-151q0 39 -13 68.5t-35 50.5t-53 33t-70 12q-69 0 -115 -46.5t-46 -115.5
q0 -44 17.5 -78t61.5 -64q38 -23 120 -48t102 -35q101 -42 150.5 -116.5t49.5 -186.5q0 -137 -100 -233q-48 -46 -109 -70.5t-133 -24.5v-82z" />
    <glyph glyph-name="ydieresis" unicode="&#xff;" horiz-adv-x="944" 
d="M-33 1100h162l340 -893l356 893h164l-594 -1456h-151l147 358zM586 1313v164h143v-164h-143zM217 1313v164h141v-164h-141z" />
    <glyph glyph-name="breve" unicode="&#x2d8;" 
d="M238 1554h79q0 -36 12 -61.5t41 -48.5q47 -35 142 -35q96 0 138.5 32.5t54.5 112.5h81q0 -67 -19.5 -115t-55.5 -84q-65 -63 -199 -63q-127 0 -199 63q-33 33 -55 83q-20 52 -20 116z" />
    <glyph glyph-name="dotaccent" unicode="&#x2d9;" 
d="M436 1319v176h152v-176h-152z" />
    <glyph glyph-name="dotlessi" unicode="&#x131;" horiz-adv-x="371" 
d="M115 0v1100h141v-1100h-141z" />
    <glyph glyph-name="ring" unicode="&#x2da;" 
d="M362 1468q0 -62 45.5 -105.5t104.5 -43.5q62 0 106 43.5t44 105.5q0 63 -44 107.5t-106 44.5q-60 0 -105 -46t-45 -106zM272 1470q0 96 69 168t171 72q100 0 171 -69.5t71 -170.5q0 -99 -71 -170t-171 -71q-99 0 -170 71q-32 35 -52 78q-18 42 -18 92z" />
    <glyph glyph-name="ogonek" unicode="&#x2db;" 
d="M580 0q-69 -60 -107.5 -122.5t-38.5 -113.5q0 -41 24 -65q24 -21 85 -21h75v-104h-73q-109 0 -159 39.5t-50 122.5q0 57 45 126q23 33 55 66t82 72h62z" />
    <glyph glyph-name="caron" unicode="&#x2c7;" 
d="M236 1597h92l184 -262l184 262h92l-200 -348h-152z" />
    <glyph glyph-name="Lslash" unicode="&#x141;" horiz-adv-x="858" 
d="M805 0h-655v575l-150 -106v143l150 105v739h143v-641l256 178v-145l-256 -176v-531h512v-141z" />
    <glyph glyph-name="lslash" unicode="&#x142;" horiz-adv-x="389" 
d="M133 0v645l-133 -92v139l133 94v670h141v-577l134 94v-142l-134 -92v-739h-141z" />
    <glyph glyph-name="fraction" unicode="&#x2215;" horiz-adv-x="342" 
d="M-221 -29h-121l905 1514h119z" />
    <glyph glyph-name="fi" unicode="&#xf001;" horiz-adv-x="952" 
d="M674 0v1100h141v-1100h-141zM309 0h-137v977h-147v123h141v30q0 174 87.5 258.5t270.5 84.5h13v-127q-124 0 -177 -50t-53 -166v-30h230v-123h-228v-977zM815 1229h-141v227h141v-227z" />
    <glyph glyph-name="fl" unicode="&#xf002;" horiz-adv-x="952" 
d="M674 0v1456h141v-1456h-141zM309 0h-137v977h-147v123h141v30q0 174 89.5 258.5t270.5 84.5h11v-127q-124 0 -177 -50t-53 -166v-30h230v-123h-228v-977z" />
    <glyph glyph-name="Zcaron" unicode="&#x17d;" horiz-adv-x="938" 
d="M719 1313h-639v143h805v-137l-682 -1178h696v-141h-860v137zM193 1947h92l184 -262l184 262h92l-200 -348h-152z" />
    <glyph glyph-name="zcaron" unicode="&#x17e;" horiz-adv-x="825" 
d="M780 0h-760v133l574 834h-510v133h666v-152l-562 -807h592v-141zM138 1597h92l184 -262l184 262h92l-200 -348h-152z" />
    <glyph glyph-name="Cacute" unicode="&#x106;" horiz-adv-x="1540" 
d="M1296 1079q-96 132 -218.5 198t-276.5 66q-240 0 -414 -180.5t-174 -427.5q0 -261 171 -443.5t417 -182.5q146 0 271 63t214 188h170q-99 -186 -268 -287.5t-377 -101.5q-316 0 -533 219t-217 547q0 151 56.5 287t171.5 250q102 102 232.5 156.5t281.5 54.5
q216 0 387.5 -103.5t277.5 -302.5h-172zM768 1597h-92l209 350h152z" />
    <glyph glyph-name="cacute" unicode="&#x107;" horiz-adv-x="1241" 
d="M993 762q-63 120 -160.5 177.5t-220.5 57.5q-168 0 -287.5 -130t-119.5 -318q0 -190 119 -317.5t294 -127.5q127 0 222.5 62t152.5 178h156q-63 -173 -201 -275q-69 -50 -148.5 -75t-174.5 -25q-237 0 -402.5 169.5t-165.5 408.5q0 243 166.5 413t405.5 170
q176 0 312.5 -96t207.5 -272h-156zM588 1247h-92l209 350h152z" />
    <glyph glyph-name="Ccaron" unicode="&#x10c;" horiz-adv-x="1540" 
d="M1296 1079q-96 132 -218.5 198t-276.5 66q-240 0 -414 -180.5t-174 -427.5q0 -261 171 -443.5t417 -182.5q146 0 271 63t214 188h170q-99 -186 -268 -287.5t-377 -101.5q-316 0 -533 219t-217 547q0 151 56.5 287t171.5 250q102 102 232.5 156.5t281.5 54.5
q216 0 387.5 -103.5t277.5 -302.5h-172zM525 1947h92l184 -262l184 262h92l-200 -348h-152z" />
    <glyph glyph-name="ccaron" unicode="&#x10d;" horiz-adv-x="1241" 
d="M993 762q-63 120 -160.5 177.5t-220.5 57.5q-168 0 -287.5 -130t-119.5 -318q0 -190 119 -317.5t294 -127.5q127 0 222.5 62t152.5 178h156q-63 -173 -201 -275q-69 -50 -148.5 -75t-174.5 -25q-237 0 -402.5 169.5t-165.5 408.5q0 243 166.5 413t405.5 170
q176 0 312.5 -96t207.5 -272h-156zM345 1597h92l184 -262l184 262h92l-200 -348h-152z" />
    <glyph glyph-name="dcroat" unicode="&#x111;" horiz-adv-x="1305" 
d="M1042 539q0 189 -123.5 321.5t-293.5 132.5q-174 0 -298 -127t-124 -309q0 -193 124.5 -324t301.5 -131q163 0 288 131t125 306zM1044 926l-5 106l-1 139v23h-293v109h293v153h142v-153h149v-109h-149v-1194h-138v166q-75 -93 -187.5 -144t-233.5 -51q-232 0 -398 168
t-166 412q0 242 161 407.5t403 165.5q133 0 238.5 -48.5t184.5 -149.5z" />
    <glyph glyph-name="Scedilla" unicode="&#x15e;" horiz-adv-x="952" 
d="M477 -111h20q107 0 163.5 -44t56.5 -128q0 -81 -61 -128.5t-167 -47.5q-53 0 -109.5 9t-142.5 30v78q92 -20 145 -27l49 -6l44 -2q64 0 96 23q33 21 33 67q0 54 -34.5 79.5t-108.5 25.5h-29q-16 0 -18 -2l1 157q-145 13 -243 120q-52 59 -83 141.5t-31 181.5h138
q0 -65 18 -117t58 -98q72 -80 191 -80q126 0 201 79.5t75 215.5q0 192 -306 299l-36 12q-160 54 -230.5 139t-70.5 221q0 174 108 285t281 111q162 0 260 -101q45 -48 76 -121.5t31 -162.5h-135q0 57 -19 102.5t-53 80.5q-60 65 -160 65q-109 0 -177 -70.5t-68 -179.5
q0 -61 20 -97.5t66 -75.5q37 -29 176 -77l114 -39q142 -54 204.5 -138.5t62.5 -226.5q0 -214 -115 -342q-56 -62 -128.5 -95.5t-161.5 -33.5z" />
    <glyph glyph-name="scedilla" unicode="&#x15f;" horiz-adv-x="797" 
d="M399 -111h20q107 0 163.5 -44t56.5 -128q0 -81 -61 -128.5t-167 -47.5q-53 0 -109.5 9t-142.5 30v78q92 -20 145 -27l49 -6l44 -2q64 0 96 23q33 21 33 67q0 54 -34.5 79.5t-108.5 25.5h-29q-16 0 -18 -2v159q-118 15 -194 97q-44 49 -71.5 120.5t-27.5 153.5h145v-4
q0 -103 59 -170.5t146 -67.5q83 0 138 52t55 131q0 78 -42.5 127t-158.5 90q-178 63 -236.5 132.5t-58.5 182.5q0 129 93 219t227 90q141 0 224 -80q39 -37 64 -95q11 -26 18 -59.5t7 -68.5h-151q0 39 -13 68.5t-35 50.5t-53 33t-70 12q-69 0 -115 -46.5t-46 -115.5
q0 -44 17.5 -78t61.5 -64q38 -23 120 -48t102 -35q101 -42 150.5 -116.5t49.5 -186.5q0 -137 -100 -233q-48 -46 -109 -70.5t-133 -24.5v-82z" />
    <glyph glyph-name="franc" unicode="&#x20a3;" horiz-adv-x="1503" 
d="M135 0v1456h719v-143h-578v-510h578v-144h-578v-659h-141zM1245 0h-143v1100h133v-127q48 67 113 107l29 13l36 12l39 8l40 3l1 -153q-132 -12 -190 -79t-58 -220v-664z" />
    <glyph glyph-name="Gbreve" unicode="&#x11e;" horiz-adv-x="1612" 
d="M643 698h905q0 -154 -58.5 -284t-170.5 -239q-210 -204 -518 -204q-315 0 -527.5 220t-212.5 546q0 151 56.5 287.5t167 244.5t244.5 164q67 26 143.5 39t146.5 13q210 0 378.5 -102t272.5 -293h-176q-102 129 -220.5 192.5t-262.5 63.5q-246 0 -423 -180
q-88 -91 -131.5 -198.5t-43.5 -232.5q0 -268 173 -447t427 -179q200 0 358.5 128t206.5 332h-735v129zM533 1904h79q0 -36 12 -61.5t41 -48.5q47 -35 142 -35q96 0 138.5 32.5t54.5 112.5h81q0 -67 -19.5 -115t-55.5 -84q-65 -63 -199 -63q-127 0 -199 63q-33 33 -55 83
q-20 52 -20 116z" />
    <glyph glyph-name="gbreve" unicode="&#x11f;" horiz-adv-x="1280" 
d="M301 -90q30 -92 115 -147.5t205 -55.5q188 0 301.5 125t113.5 334v29q-78 -108 -183 -165q-47 -25 -105 -40t-119 -15q-242 0 -409 165.5t-167 412.5q0 243 162 408t401 165q68 0 130 -12l57 -15q11 -4 26 -10t28 -13q94 -44 179 -156v180h138v-918q0 -289 -144.5 -450.5
t-398.5 -161.5q-187 0 -319 91t-175 249h164zM203 559q0 -188 123 -320.5t295 -132.5q159 0 286 131t127 306q0 186 -123.5 320t-289.5 134q-171 0 -294.5 -126.5t-123.5 -311.5zM367 1554h79q0 -36 12 -61.5t41 -48.5q47 -35 142 -35q96 0 138.5 32.5t54.5 112.5h81
q0 -67 -19.5 -115t-55.5 -84q-65 -63 -199 -63q-127 0 -199 63q-33 33 -55 83q-20 52 -20 116z" />
    <glyph glyph-name="Idotaccent" unicode="&#x130;" horiz-adv-x="412" 
d="M276 0h-143v1456h143v-1456zM131 1669v176h152v-176h-152z" />
    <glyph glyph-name="greaterequal" unicode="&#x2265;" horiz-adv-x="1706" 
d="M1442 139v-98h-1178v98h1178zM1442 780v-84l-1178 -401v106l1010 336l-1010 338v107z" />
    <glyph glyph-name="lozenge" unicode="&#x25ca;" horiz-adv-x="1012" 
d="M506 1409l-385 -817l385 -825l385 825zM506 1653l500 -1061l-500 -1069l-500 1069z" />
    <glyph glyph-name="c298" unicode="&#xf12a;" horiz-adv-x="1579" 
d="M1462 139v-139h-581v127q206 123 312.5 295t106.5 373q0 260 -141.5 420.5t-367.5 160.5q-228 0 -370 -160t-142 -419q0 -205 105 -374t314 -296v-127h-581v139h344q-170 130 -255 291t-85 354q0 316 189 522.5t481 206.5q291 0 480 -203.5t189 -523.5q0 -196 -83 -353
t-259 -294h344z" />
    <glyph glyph-name="c299" unicode="&#xf12b;" horiz-adv-x="1171" 
d="M1120 944h-182l-115 -541l-23 -117l-7 -71q0 -54 24 -81q25 -25 86 -25h21l30 2l41 7l-26 -118l-54 -12l-47 -4q-101 0 -157 53t-56 149v25q0 20 2 27v26l4 17l7 45l5 32l9 41l11 63l18 75l86 407h-365l-199 -944h-139l199 944h-39q-54 0 -84.5 -30.5t-42.5 -100.5h-131
q24 139 87.5 195.5t215.5 56.5h848z" />
    <glyph glyph-name="c304" unicode="&#xf130;" horiz-adv-x="1034" 
d="M752 592l12 83q6 44 6 77l1 37l1 42l4 70q0 158 -39.5 242t-115.5 84q-45 0 -103.5 -68.5t-107.5 -68.5q-31 0 -52.5 20t-21.5 47q0 57 63.5 104.5t155.5 47.5q165 0 264 -150.5t99 -406.5q0 -333 -136 -556t-333 -223q-143 0 -233.5 107t-90.5 278q0 175 108.5 302.5
t262.5 127.5q92 0 156 -47.5t100 -148.5zM711 463q0 126 -45 192t-134 66q-113 0 -187 -125q-35 -60 -54 -142l-8 -46l-7 -48l-3 -37l-1 -49q0 -127 44.5 -189t134.5 -62q108 0 184 126t76 314z" />
    <glyph glyph-name="c295" horiz-adv-x="1706" 
d="M1452 659v-98h-1198v98h1198z" />
    <glyph glyph-name="c316" unicode="&#xf134;" horiz-adv-x="578" 
d="M197 729q0 39 27.5 66.5t64.5 27.5q38 0 66 -28t28 -66q0 -36 -28 -64t-66 -28q-39 0 -65.5 27.5t-26.5 64.5z" />
    <glyph glyph-name="c281" unicode="&#xf119;" horiz-adv-x="1706" 
d="M1288 1110l-205 -264h369v-96h-432l-215 -277h647v-98h-709l-254 -324l-73 60l205 264h-367v98h428l215 277h-643v96h707l253 323z" />
    <glyph glyph-name="c282" unicode="&#xf11a;" horiz-adv-x="1706" 
d="M1442 139v-98h-1178v98h1178zM1442 1075l-1010 -338l1010 -336v-106l-1178 401v84l1178 402v-107z" />
    </font>
</defs>
</svg>
